<svg xmlns="http://www.w3.org/2000/svg" viewBox="0 0 24 24">
  <path d="M9.03 18.5c6.04 0 9.34-5 9.34-9.34 0-.14 0-.28-.01-.42.64-.47 1.2-1.04 1.64-1.7-.59.26-1.22.44-1.89.52.68-.41 1.2-1.05 1.44-1.82-.63.38-1.34.65-2.08.8a3.282 3.282 0 0 0-5.68 2.24c0 .26.03.51.09.75A9.323 9.323 0 0 1 5.11 6.1a3.28 3.28 0 0 0-.44 1.65c0 1.14.58 2.14 1.46 2.73-.54-.02-1.04-.16-1.49-.41v.04c0 1.59 1.13 2.92 2.63 3.22a3.18 3.18 0 0 1-1.48.06 3.3 3.3 0 0 0 3.07 2.28 6.59 6.59 0 0 1-4.08 1.41c-.26 0-.53-.02-.78-.05 1.45.93 3.18 1.47 5.03 1.47"/>
</svg>
