<svg xmlns="http://www.w3.org/2000/svg" viewBox="0 0 960 640">
  <rect width="960" height="640" fill="#F2F2F2"/>
  <path fill="#FFF" d="M308.16 274.5c0 79.25-64.25 143.5-143.5 143.5s-143.5-64.25-143.5-143.5S85.41 131 164.66 131s143.5 64.25 143.5 143.5"/>
  <path fill="#B3B3B3" d="M124.03 190.68l.15 1.7-1.07-.17-.32-.67 1.24-.86zm2.62 2.29l1.43-.16.9-1.87-1.35-.81-1.89.76.04 1.28.87.8zm109.85-67.82l3.25-3.22-4.21-.26-.99 1.75.08 1.67 1.87.06zm9.41 17.73l.92-1.67 1.62.06 2.65 2.28.55 2.2 4.85-1.97.1-1.82-4.17-4.16-.37-4.92-2.7-1.13-1.25-2.86 2.14-4.18 2.26-.16 1.53.94 1.88 5.13 8.68-1.4 1.88 1.56.19 1.46 3.45 2.77 6.73 19.68 17.03-14.11 6.34 4.88.65-1.15 2.28-.03.29 1.17 1.47 1.02 3.19-1.83 4.38.64 1.7-1.9 1.43.15 1.82-.98-1.39-.83-4.76 1.09-1.57-1.2 2.08-2.55-1.33-8.49 7-6.78.1-1.29-6.15 2.66-7.99-1.93-.35-1.09-1.8-.91-.52-3.49-2.31-2.25-8.31-37.53-2.32-1.78-.46 1.07-2.02.46-.97-.75-1.03.27-10.4 28.69-.95-.55-2.96.59-1.52 6.39.53 1.24-.51 1.99-1.16.18-1.33 1.42-1.87.04-4.92-7.54-1.76-.81-1.96.99 1.61 5.11-.46 1.07-4.01 1.81-1.59-.81-1.05.68-1.72-.25-6.29 7.8 1.21.99 1.29 5.22-3.69 8.73-.97-.04-.51 2.35.92 2.37 6.65-2.01zm-51.19 56.85l2.8-3.27-1.07-1.54 2.09-3.1-1.25.16-4.38 4.21 1.85.23.22.64-3.19 2.61 2.93.06zM61.46 211.08l.46 1.72.99.11-.61-1.84-.63-.42-.21.43zm-1.59.98l-.1.82.72-.23-.62-.59zm-2.19.29l.53 1.01.88-.28-1.41-.73zm-2.08.07l-.49 1.11 1.72.25-1.23-1.36zm-4.23 5.2l1.94-.05.34-1.99-.7-1.56.81-1.35-1.49-.31-2.1 4.05 1.2 1.21zm14.69 12.86l1.16-1.13-.43-.99-1.16.19-.71 1.24 1.14.69zm-5.21 2.36l1.69-.65-.36-.76-1.52.27.19 1.14zm3.14-7.11l-1.53.37-1.58 4.2.95.79 1.74-1.4.82-3.55-.4-.41zm64.97 10.03l3.64-5.12-1.23-.64-1.57.57-1.96 4.4 1.12.79zm-5.82-6.68l1.83.33.86-.95-1.08-1.3-2.85.31 1.24 1.61zm-27.42 12.95l.53 1.01 1.25-.24.92 1.43 1.2.45.83-1.39-.32-3.44 10.61-3.61 3.57 6.19-.28 2.05 1.73.38 3.78-2.91 3.99-.39 1.25-1.17-.39-6.6-1.51-1.28-.64-2.26-2.57-2.23-4.15.14-.97 1.27-2.12.74-4.75-.92-.74-1.04.93-3.68-1.03-.67-5.18 1.02-1.51 1.8-2.77-.11-2.06 1.75 2.34 2.99-1.03 2.42-1.05.13-.81 1.05-.26 3.73 2.31 2.25-1.1 1.14zm-40.51 24.75l-.06-2.55-1.51-.74-1.44.86-.42 2.95 1.5 1.68 1.24-.53.69-1.67zm4.42-1.18l2.72-2.92-.39-1.9-3.25 5.01.92-.19zm-.11-8.44l7.02-.98-.43-3.3.78-1.18 1.31.3 1.52 2.96 12.13-16.22 5.99-1.46.75-1.9-.81-1.11 1.42-2-.95-1.08 1.4-1.06-3.44-2.57.09-1.12 2.42.25 1.57-.87 1.56-3.1-.71-1.86-1.88-.97-.52.67-2.16-.05-1.29-1.34-.37-4.23 1.46-1.2 7.66 2.5 3.25 5.36 6-6.41 1.51.99-.12 1.86 13.83 6.47.56.97 1.52.34.59-.61 8.37-.43 7.94 4.92.25 1.38-6.36 4.16.45 1.36-4.45 7.02 3.69 9.51 6.14-1.17 1.72-1.84 1.67.15 1.08-.78.65-1.71 3.28-1.47 3.6 2.35 1.37-.61 1.29-3.6-2.47-4.47.32-1.42 2.96-2.14 2.98.21-1.07.55-1.51 2.42.26 1.15 2.33-.18 1.66 2.95 1.34.51.56.73-1.07.54-2.24-.95-.63.35.41.86 13.31 7.61-.23-1.25 3.45-4.48 3.1.61 1.49 1.62-3.33 3.85-.32 2.13 1.68 1.05 3.23-.95 1.56-4.5 2.31-1.78 4.03.02 1.47 1.01 1.19-.63-.04-1.94 2.42-2.06 1.9.16 1.65 1.87-9.12 10.92.63 1.2 2.03.14 2.39-1.25 1.83 1.17 6.36-2.71.87-2.06 3.85-.37 22.13-46.07 5.93 2.18-.27 2.05 1.17-.29 15.76-30.05-1.71-2.26 3.16-4.58.99-18.1 3.15-4.25-2.8-.78-2.14-4.1-4.63 4.31.24 1.56 5.22.02-.94 3.39-2.22 1.27-1.84-.17-.57-2.05-.48-.37-1.24 2.92-1.68.26-1.03-1.69 2.5-5.95-1.59-.56-.63-1.5-4.8 7.1-1.61-.47-2.64.89-.86 1.19.21 6.84-3.06 2.12-2.08-.17-1.35-1.58-1.2.86.03 3.06 1.86.83 2.52-.48L204 201.06l-3.57-.61-10.77 8.58-13.87-1.34-2.5 1.24-1.54-8.22 1.06-1.21 1.49.31 2.55-1.08.65-1.23 2.28-.33.3-.61-8.77-1.67-7.94 12.48-4.29.64-1.08 1.32-1.61.31-3.13 3.37.12 1.7-1 1.61-1.11.05-.01.94-1.51.87-1.09-.66-.05 1.45-2.05-.57-.45-1.66-2.36-.02-.63-1.02 1.32-2.5-.4-.72-2.09-.06-1.3-.94-.29-.94-17.68-6.81-.47-1.25-8.33-1.7-11.56 4.04-2.27-.68-7.31 2.3-3.2-1.56-2.07.67-1.83 3.77.62 1.37-.56 1.42-1.49.63-1.81-1.21-12.65 2.44-4.38-1.66 1.82 1.58-1.68 5.51-1.23.13 1-3.77-1.76 1.28-.92 2.28.88 1.56-.7 1.38-1.68.79 1.45.21 1.77-.84 1.97.68.72 1.15-1.37.15.31 1.14 1.98.75 1.29-2.05-.34-1.88-2.25-.95 1.96-1.24.77-1.92 1.72-.45 1.21 2-2.01 8.65-6.58 5.78-1.94-1.19-4.3 14.64-1.7.43.07 2.61 1.82 1.04.75 1.9 1.28-.27.84-1.09.28-3.53 2.57-3.34 1.74-.33.39 1.66-1.29.44-.79.95.3 2.86-4.2 6.15z"/>
  <path fill="#B3B3B3" d="M770.74 213.7l-1.31-.1-1.02.61-6.81-1.39-4.23-4.88.13-2.54-1.91-2.7-2.48-.21-.17-5.09-2.58 3.47-.69.11 1.64-1.47 1.63-7.03-.28-.11-5.72 7.37-1.09.11-.9-1.35.34-.48-3.84-6.58-6.99-2.86-22.01 6.65-.47 1.33-15.46 6.74-9.73-1.24-.38-1.93 1.59-2.22-12.73-24.51 2.57 3.29-.83-3.62.99 1.92.4-.24.9 1.15-2.62-16.35.57 2.23.23.04 24.95-17.76-.12-.97-.31-.15 1.54-4.43 1.24-.96-.52.66 2.09 2.62.76-1.54-1.35-1.32.44-.78-.7-.49.05-.22 3.22.58 1.03-1.32-.82-.1-.1-2.32 1.41-1.07 1.04.28-.32-1.64 1.7-1.38.84 1.11.77-1.19-.44-.86.25-.11.39.74.8-.35.68.47.23-.89.95-.48 3.86 2.94.16-.12-.21 1.05 5.31-.89-1.03-1.33 2.83-4.06-.82-.45 3.29-3.47 4.6-.09.47-1.79-2.54-1.11 2.52-1.07.16.94.79.37.24-.13 1.62.77.25.47 5.77 1.27 2.22-.97.15.12-.65.91.06.19 1.1-.23.08.91 1.36-2.12.24.09.27.73 1.35.68-1.66 3.02-1.58.68-1.61 4.44.46 1.47 4.84 2.12-.03-.04 10.26 7.16 2.74-1.38 3.47-16.6-.61-.26 1.8-5.3 1.23-.84 4.38 12.92 2.46-.47 2.6 3.45.26 4.21 1.52 1.91.08 5.02 1.07-.05.36 2.73 3.86 3.23.73-.34 1.7 1.62.45-.31 1.46.98.22-.15.21.83-.59-.26-.51 1.04 2.5 6.23.71.29.39-.99 1.71 1.67.22-.09-.04-.93.63 4.38 6.42 8.05.99-2.03.19.02-1.63 9.81.54.34.18-.17-17.2 33.6-10.22 3.17-.68 1.03-3.06-2.77-.92-.1.79-.48.05-1.18-.3-.21-1.24.65.51 1.02zm3.8 14.84l1.11-1.35.59 1 2.12-8.22-8.77-1.84-.34.49 2.25 9.72 1.7.67 1.2-.57.14.1zm-45.22-108.15l2.01-.47.37-1.28-3.73-.24-.62 1.93 1.97.06zm20.61 7.16l-.07-1.31-.95 1.83 1.39.19-.37-.71zm8.38 9.53l1.74-.87-1.74.87z"/>
  <path fill="#ED1C24" d="M153.84 233.04a7.73 7.73 0 1 1-12.24-9.44 7.73 7.73 0 0 1 12.24 9.44M794.84 203.04a7.73 7.73 0 1 1-12.24-9.44 7.73 7.73 0 0 1 12.24 9.44"/>
  <path fill="#ED1C24" d="M104.51 318.83c-12.48 0-21.59-7.92-21.59-23.02 0-15.97 10.61-23.46 21.96-23.46 12.42 0 21.59 7.8 21.59 22.96 0 15.85-10.54 23.52-21.96 23.52m-7.3-23.4c0 15.22 2.12 19.09 7.55 19.09 5.05 0 7.3-3.99 7.3-18.72 0-15.47-2.25-19.15-7.43-19.15-5.05 0-7.42 4.12-7.42 18.78m59.52 11.55c0-6.43-3.06-9.61-10.23-11.35l-2.31-.56c-3.81-1-4.99-2.12-4.99-4.37 0-2.5 1.68-3.99 5.05-3.99 1.87 0 3.31.25 4.31.75l1.81 5.36h4.12v-8.36c-2.62-1-6.49-1.44-10.48-1.44-9.73 0-14.16 4.74-14.16 11.42 0 6.36 3.37 9.86 10.67 11.67l2.31.56c3.49.81 4.68 2 4.68 4.24 0 2.62-1.75 4.3-5.62 4.3a11.2 11.2 0 0 1-5.3-1.18l-2.62-5.93h-4.12l.38 8.92a36.15 36.15 0 0 0 11.79 1.87c10.16 0 14.71-4.3 14.71-11.91m20.59-8.86v-4.68c0-4.68-1.5-6.61-5.49-6.61-1.19 0-2.06.12-3 .37l-2.31 7.49h-4.99v-9.42c3.24-1 7.3-2.18 12.67-2.18 9.23 0 14.54 2.56 14.54 10.3v20.09l3.25 1.62v2.25c-1.18.81-3.74 1.56-6.49 1.56-4.31 0-6.36-1.56-7.3-3.99h-.38c-2 2.56-4.74 4.12-9.11 4.12-5.8 0-9.67-3.43-9.67-9.3 0-5.74 3.49-8.92 10.79-10.17l7.49-1.45zm0 14.16v-10.61l-2.74.31c-3.06.31-4.49 2.06-4.49 5.87 0 4.37 1.75 5.43 4.24 5.43 1.31 0 2.37-.38 2.99-1zm48.36-23.83l3.93-1.75v-2.81h-13.48v2.81l3.49 1.87-10.98 11.48v-31.07l-1.62-.19-13.54 2v2.74l3.74 1.44v38.75l-3.56 1.62v2.74H212v-2.81l-3.37-1.62v-11.29l9.73 15.72h13.35v-2.81l-2.75-1.31-11.1-17.35 7.82-8.16zm26.26 9.67v-4.68c0-4.68-1.5-6.61-5.49-6.61-1.19 0-2.06.12-3 .37l-2.31 7.49h-4.99v-9.42c3.24-1 7.3-2.18 12.67-2.18 9.23 0 14.54 2.56 14.54 10.3v20.09l3.24 1.62v2.25c-1.18.81-3.74 1.56-6.49 1.56-4.31 0-6.36-1.56-7.3-3.99h-.38c-2 2.56-4.74 4.12-9.11 4.12-5.8 0-9.67-3.43-9.67-9.3 0-5.74 3.49-8.92 10.79-10.17l7.5-1.45zm0 14.16v-10.61l-2.74.31c-3.06.31-4.49 2.06-4.49 5.87 0 4.37 1.75 5.43 4.24 5.43 1.31 0 2.37-.38 2.99-1z"/>
  <path fill="#666" d="M87.18 360.95l4.78-1.39 4.22-18.28-4.73.74.46-2.74 10.63-4.59h3.62l-5.71 24.87 4.22 1.39-.42 2.37H86.72l.46-2.37zm21.81-5.89c-.97 4.64-2.18 8.91-3.34 12.72h2.92c3.85-3.53 7.24-8.07 8.77-12.72h-8.35m16.34 14.1c12.48 0 19.67-10.44 19.67-22.64 0-7.33-3.34-11.97-11-11.97-9.33 0-13.69 6.87-13.69 13.92 0 4.96 2.55 8.17 7.66 8.17 2.74 0 5.06-1.02 6.96-2.46-2.32 7.94-6.12 11-11.79 11-1.86 0-3.71-.37-4.87-.93l-.65 2.83c1.26 1.2 4.37 2.08 7.71 2.08m6.5-16.61c-2.18 0-3.11-1.16-3.11-3.8 0-3.06 1.21-8.21 2.92-10.07a3.2 3.2 0 0 1 2.51-1.11c2.13 0 2.79 1.67 2.74 4.5a46.4 46.4 0 0 1-1.16 8.86c-.05.28-.09.56-.18.79a9.01 9.01 0 0 1-3.72.83m15.77-.65c0 8.59 5.62 11.93 11.56 11.93 9.56 0 15.45-8.12 15.45-17.4 0-8.58-5.57-11.88-11.46-11.88-9.56 0-15.55 8.17-15.55 17.35m13.97 7.75a3.3 3.3 0 0 1-2.46 1.11c-2.09 0-3.02-1.44-3.02-4.13 0-4.73 2.04-15.36 4.69-18a3.2 3.2 0 0 1 2.37-1.07c2.27 0 2.97 1.72 2.97 4.13 0 4.65-2.04 15.09-4.55 17.96m11.33 6.73c1.9 1.72 5.15 2.64 9.28 2.64 9.84 0 14.62-5.99 14.62-12.9 0-5.38-3.25-8.26-8.82-8.26-2.37 0-4.5.56-5.85 1.21l2.23-7.61h13.6l1.86-6.36H182.5l-5.01 17.68a20.2 20.2 0 0 1 4.55-.6c3.53 0 5.43 1.39 5.43 4.64 0 4.27-2.37 7.93-8.17 7.93-2.09 0-4.18-.42-5.75-1.25l-.65 2.88m34.23-3.06h3.48l1.14-4.91c.31.81 1.2 3.26 1.31 3.48.33.97.85 1.66 1.95 1.66 1.2 0 2.28-.29 2.8-.68l.19-.99-1.24.08-2.3-5.51c.64-.71 1.33-1.45 1.89-2.05l1.89.44c.25-.27.35-.7.35-1.04 0-.81-.5-1.28-1.49-1.28-.96 0-1.68.5-2.55 1.62l-2.67 3.55 2.22-9.56-.29-.16-4.77.54-.21 1.06h1.41l-3.11 13.75zm24.11-1.95c-.37 1.49.08 2.18 1.62 2.18 1.1 0 2.24-.25 3.13-.68l.27-.97-1.64.08 1.55-6.18c.12-.5.15-.83.15-1.22 0-1.29-.85-2.07-2.09-2.07-1.62 0-3.05 1.14-4.14 2.84h-.11c.06-.29.08-.52.08-.69 0-1.28-.6-2.15-1.91-2.15-1.56 0-3.01 1.04-4.21 2.99h-.08l.25-1.16c.29-1.26-.02-1.82-1.06-1.82s-2.3.33-3.4.68l-.19 1.01 1.43-.04-2.11 9.14h3.48l1.51-6.16c.71-1.04 1.55-2.1 2.3-2.1.33 0 .48.17.48.54 0 .17-.06.42-.12.7l-1.6 7.03h3.54l1.45-6.28c.68-.98 1.6-1.99 2.3-1.99.33 0 .5.17.5.54 0 .19-.04.42-.12.7l-1.26 5.08m6.1-4.72H244l.58-1.87h-4.75l.02-.08 1.66-.73c2.78-1.22 3.98-2.55 3.98-4.06 0-1.41-.99-2.16-2.96-2.16-.98 0-2.09.16-2.99.5l-.54 2.34h1.29l.75-1.6c.19-.02.37-.06.6-.06.56 0 .87.29.87.99 0 .97-.56 2.26-2.69 3.69l-2.12 1.41-.36 1.63z"/>
  <path fill="#666" d="M809.92 211.46l.68-3.63h1.91l-.02 2.46c.64.36 1.52.61 2.55.61 1.63 0 2.64-.76 2.64-1.99 0-.95-.44-1.51-1.72-2.16l-1.14-.57c-2.02-1.04-3.19-2.29-3.19-4.33 0-3.1 2.07-5.18 5.98-5.18 2.11 0 3.59.36 4.51.83l-.62 3.56h-1.78l.04-2.48a6.15 6.15 0 0 0-2.02-.36c-1.43 0-2.29.68-2.29 1.84 0 .85.46 1.46 1.69 2.12l1.32.68c2 1.04 3.17 2.23 3.17 4.43 0 3.01-2.35 5.2-6.56 5.2-2.2.01-3.85-.37-5.15-1.03m11.04 2.31c-.9 0-1.61.61-1.61 1.51 0 1.17.95 1.72 2.4 1.72 2.42 0 4.82-1.78 6.98-3.88a25.6 25.6 0 0 0 5.26-7.57c.57-1.25.84-2.42.84-3.29 0-1.38-.66-1.87-1.76-1.87-.75 0-1.39.19-2.09.42l-.22 1.12c.84.09 1.21.59 1.21 1.63 0 .4-.04.87-.18 1.44a16.13 16.13 0 0 1-2.73 5.81h-.09c.02-2.71-.35-7.04-.68-8.7-.26-1.27-.73-1.74-2.2-1.74-.97 0-2.22.28-3.15.61l-.24 1.17h1.43a97.2 97.2 0 0 1 1.3 11.6c-1.08 1-2.27 1.7-3.19 1.7h-.11l-.75-1.7h-.42zm13.95-4.7c0 1.93 1.06 3.46 2.86 3.46 1.65 0 3.08-1.06 4.29-2.63h.11l-.16.68c-.2 1.1.22 1.93 1.72 1.93 1.17 0 2.49-.26 3.52-.72l.31-1.06-1.8.06 3.59-15.19-.31-.17-5.41.59-.26 1.17h1.61l-.86 3.65a4.3 4.3 0 0 0-2.05-.45c-4.34 0-7.16 4.05-7.16 8.68m7.37-.66c-.79.93-1.72 1.74-2.51 1.74-.55 0-.81-.51-.81-1.23 0-2.42 1.34-7.21 3.56-7.21.48 0 .9.15 1.28.47l-1.52 6.23m13.73 1.69c-.44 1.63.09 2.4 1.83 2.4 1.28 0 2.57-.28 3.59-.74l.33-1.06-1.87.08 1.74-6.77c.16-.55.18-.91.18-1.34 0-1.55-1.01-2.29-2.35-2.29-1.85 0-3.63 1.29-4.97 3.29h-.11l.33-1.32c.31-1.34-.07-1.95-1.26-1.95s-2.62.36-3.87.74l-.22 1.1 1.63-.04-2.4 10.03h4.01l1.65-6.7c.81-1.14 1.96-2.38 2.82-2.38.35 0 .51.15.51.55 0 .19-.04.47-.13.83l-1.44 5.57m11.75 2.42c2.11 0 3.72-.83 4.64-1.72l.31-1.59a6.06 6.06 0 0 1-3.3 1.02c-1.94 0-2.66-1.02-2.66-2.74v-.25c4.55-.45 7.24-1.93 7.24-4.39 0-1.65-1.5-2.46-3.61-2.46a7.32 7.32 0 0 0-7.5 7.45c-.01 2.6 1.56 4.68 4.88 4.68m-.9-6.44c.4-2.54 1.83-4.24 3.19-4.24.53 0 .75.34.75.89-.01 1.73-1.48 2.99-3.94 3.35m5.98 7.69c-.9 0-1.61.61-1.61 1.51 0 1.17.95 1.72 2.4 1.72 2.42 0 4.82-1.78 6.98-3.88a25.6 25.6 0 0 0 5.26-7.57c.57-1.25.84-2.42.84-3.29 0-1.38-.66-1.87-1.76-1.87-.75 0-1.39.19-2.09.42l-.22 1.12c.84.09 1.21.59 1.21 1.63 0 .4-.04.87-.18 1.44a16.13 16.13 0 0 1-2.73 5.81h-.09c.02-2.71-.35-7.04-.68-8.7-.26-1.27-.73-1.74-2.2-1.74-.97 0-2.22.28-3.15.61l-.24 1.17h1.43a97.2 97.2 0 0 1 1.3 11.6c-1.08 1-2.27 1.7-3.19 1.7H874l-.75-1.7h-.41zm-67.46 22.27l-1.54.51-.2 1.15h7.33l.2-1.15-1.08-.51-2.2-13.64h-3.72l-7.08 13.64-1.28.51-.2 1.15h4.8l.2-1.15-1.32-.51 1.39-2.86H805l.38 2.86zm-1.39-9.67h.15l.66 5.2h-3.34l2.53-5.2zm8.36 9.46c.11 1.46 1.17 2.14 2.44 2.14 1.72 0 3.26-1.21 4.71-3.14h.11l-.22.91c-.27 1.31.31 2.21 1.85 2.21 1.14 0 2.42-.32 3.39-.72l.33-1.06-1.89.06 2.42-10.16h-4.01l-1.74 7.13c-.84 1.06-1.83 2.02-2.64 2.02-.4 0-.53-.21-.53-.61 0-.23.04-.51.13-.83l1.41-5.96c.29-1.25-.11-1.95-1.43-1.95-1.06 0-2.62.36-3.87.74l-.22 1.1 1.54-.04-1.61 6.66a5.65 5.65 0 0 0-.17 1.5m13.24-.21c0 1.38 1.45 2.35 4.31 2.35 2.93 0 5.24-1.4 5.24-4.03 0-1.72-.79-2.65-2.93-3.73-1.47-.78-1.83-1.1-1.83-1.76 0-.74.57-1.23 1.67-1.23.37 0 .66.04.95.13l.81 2.04h.38c1.1 0 1.67-.57 1.67-1.48 0-1.29-1.28-2.06-3.85-2.06-2.95 0-4.95 1.61-4.95 3.84 0 1.76.84 2.8 2.79 3.78 1.32.68 1.89 1.04 1.89 1.76 0 .83-.66 1.36-1.85 1.36-.48 0-.88-.06-1.23-.21l-.86-2.31h-.46c-1.04-.02-1.75.59-1.75 1.55m11.38-7.98h1.5l-1.72 7.32c-.11.4-.11.74-.11 1.06 0 1.32 1.1 1.93 2.75 1.93a8.1 8.1 0 0 0 3.48-.66l.31-1.31c-.57.17-1.1.3-1.72.3-.79 0-.92-.38-.77-1.04l1.8-7.59h2.29l.35-1.57h-2.33l.59-2.67h-3.94l-.59 2.67-1.69.45-.2 1.11zm7.76 10.05h4l1.58-6.45c.9-1.46 2.13-2.78 2.91-2.95l.48 1.65c1.52-.17 2.53-1.21 2.53-2.57 0-.91-.55-1.55-1.61-1.55-1.63 0-2.95 1.29-4.07 3.5h-.11l.35-1.53c.29-1.4-.09-1.95-1.25-1.95-1.19 0-2.57.36-3.83.74l-.22 1.1 1.63-.04-2.39 10.05zm10.23-3.05c0 1.93.99 3.33 2.86 3.33 1.63 0 2.99-1.08 4.16-2.63h.11l-.2.79c-.18.89.26 1.82 1.8 1.82 1.17 0 2.55-.26 3.59-.72l.31-1.06-1.89.06 2.44-10.18h-3.21l-.6.72h-.11a3.6 3.6 0 0 0-2.16-.66c-4.26 0-7.1 4.22-7.1 8.53m7.26-.76c-.77 1-1.61 1.74-2.38 1.74-.57 0-.84-.42-.84-1.19 0-2.82 1.67-6.77 3.5-6.77.51 0 .84.17 1.12.47l-1.4 5.75m6.74 1.67c-.4 1.59.09 2.4 1.85 2.4a9.6 9.6 0 0 0 3.72-.74l.33-1.06-2.07.08 3.63-15.19-.31-.17-5.48.59-.22 1.17h1.58l-3.03 12.92m7.32 0c-.37 1.59.09 2.4 1.85 2.4a9.6 9.6 0 0 0 3.72-.74l.33-1.06-2.02.08 2.02-8.42c.33-1.31-.07-1.95-1.39-1.95-1.06 0-2.84.36-4.11.74l-.2 1.1 1.69-.04-1.89 7.89m2.53-12.49c0 1 .77 1.91 2.2 1.91 1.17 0 2.22-.68 2.22-1.89 0-1.04-.75-1.93-2.22-1.93-1.14 0-2.2.7-2.2 1.91m4.33 11.58c0 1.93.99 3.33 2.86 3.33 1.63 0 2.99-1.08 4.16-2.63h.11l-.2.79c-.18.89.27 1.82 1.81 1.82 1.17 0 2.55-.26 3.59-.72l.31-1.06-1.89.06 2.44-10.18h-3.21l-.59.72h-.11a3.6 3.6 0 0 0-2.16-.66c-4.28 0-7.12 4.22-7.12 8.53m7.27-.76c-.77 1-1.61 1.74-2.38 1.74-.57 0-.84-.42-.84-1.19 0-2.82 1.67-6.77 3.5-6.77.51 0 .84.17 1.12.47l-1.4 5.75"/>
  <path fill="#666" d="M433.54 69.15l-3.01 1.05-.22-1.1 3.58-2.25 1.03-.21 2.86 14.26-1.8.36-2.44-12.11zm6.74 4.69c.76 4.68 3.52 6.23 6.54 5.74 3.02-.49 5.07-2.77 4.28-7.63l-.22-1.34c-.78-4.82-3.56-6.25-6.44-5.78-2.88.47-5.17 2.77-4.37 7.68l.21 1.33m8.97-1.32c.56 3.42-.27 5.09-2.69 5.48-2.42.39-3.77-1.19-4.31-4.46l-.26-1.62c-.53-3.28.28-5.13 2.7-5.53 2.42-.39 3.77 1.25 4.3 4.51l.26 1.62m10.11 4.99l1.77-.18-.88-8.55a7.29 7.29 0 0 1 2.64-.98c1.63-.17 2.08.31 2.2 1.52l.77 7.52 1.77-.18-.81-7.9c-.21-2.05-1.26-2.82-3.3-2.61a6.2 6.2 0 0 0-3.29 1.43l-.1.01-.57-5.55-1.77.18 1.57 15.29zm9.91-5.83c.2 3.15 2.05 4.9 5.05 4.71 2.84-.18 4.6-2.24 4.4-5.4l-.06-.94c-.2-3.13-2.08-4.92-5.03-4.73-2.86.18-4.62 2.26-4.42 5.4l.06.96m7.62-.37c.14 2.2-.83 3.48-2.62 3.6-1.62.1-2.99-.61-3.16-3.3l-.08-1.18c-.14-2.16.83-3.48 2.66-3.6 1.62-.1 2.95.63 3.12 3.31l.08 1.17m4.08 1.56c.05 2.06 1.2 3.11 3.24 3.06a5.43 5.43 0 0 0 3.17-1.2h.12l.2.92 1.52-.04-.27-10.67-1.8.05.21 8.53c-.72.42-1.6.8-2.67.83-1.5.04-1.93-.49-1.96-1.79l-.19-7.46-1.78.05.21 7.72m10.98 2.74l1.78.01.06-8.26c.73-.5 1.86-.89 2.83-.88.18 0 .53.02.79.09l.01-1.64c-.1-.04-.37-.08-.65-.08a4.2 4.2 0 0 0-2.95 1.36h-.1l.01-1.26-1.7-.01-.08 10.67zm18.68-1.81c-.11 1.89.79 2.59 2.23 2.68.87.05 1.27-.13 1.7-.28l.08-1.28c-.42.08-.88.11-1.21.09-.71-.04-1.05-.3-.99-1.32l.74-12.34a9.12 9.12 0 0 0-3.44-.76c-2.33-.14-4.24.85-4.4 3.51l-.07 1.12-1.81-.11-.09 1.52 1.81.11-.55 9.14 1.79.11.55-9.14 2.35.14.09-1.52-2.35-.14.06-.96c.11-1.74 1.03-2.34 2.63-2.25.67.04 1.14.13 1.57.27l-.69 11.41m5.51 2.86l1.77.16.97-10.64-1.77-.16-.97 10.64zm1.09-12.75l1.89.17.17-1.87-1.89-.17-.17 1.87zm3.06 16.57c.63.56 2.12 1.08 3.55 1.26 3.02.37 4.88-.54 5.24-3.52l1.3-10.74-1.49-.18-.25.59-.1-.01a4.53 4.53 0 0 0-2.53-1.13c-2.67-.32-4.76.89-5.19 4.47l-.11.87c-.43 3.57 1.72 4.9 3.7 5.14 1.37.17 2.3-.13 2.98-.65l.1.01-.15 1.21c-.25 2.07-1.57 2.61-3.65 2.36a9.94 9.94 0 0 1-3.24-1.03l-.16 1.35m7.35-5.23c-.5.32-1.36.7-2.5.56-1.78-.22-2.92-1-2.61-3.58l.13-1.05c.3-2.48 1.5-3.06 3.37-2.84a4 4 0 0 1 2.32 1.05l-.71 5.86m4.15 3.22l1.75.28 1.38-8.49c.8-.22 1.91-.4 2.8-.25 1.62.26 1.92.84 1.73 2.04l-1.21 7.46 1.75.28 1.27-7.84c.33-2.03-.48-3.06-2.51-3.39a6.27 6.27 0 0 0-3.55.52l-.1-.01.89-5.51-1.75-.28-2.45 15.19zm12.1-.47c-.37 1.86.73 2.81 2.36 3.14.91.18 1.56.04 2.04-.11l.24-1.2c-.43.04-1.11 0-1.53-.08-1.14-.22-1.48-.66-1.28-1.66l1.24-6.28 2.85.56.29-1.49-2.85-.56.49-2.47-1.76-.35-.49 2.47-1.74-.34-.29 1.49 1.74.34-1.31 6.54"/>
  <path fill="none" d="M324.24 154.86c94.17-88.31 241.58-87.39 334.66 2.74" stroke="#ED1C24" stroke-dasharray="0,7.9418" stroke-linecap="round" stroke-width="4">
    <animate attributeName="stroke-dashoffset" from="0" to="7.9418" dur="0.25s" repeatCount="indefinite"/>
  </path>
  <polygon fill="#ED1C24" points="326.3,161.81 319.87,159.02 317.42,152.45 310.76,167.66"/>
  <path fill="#FFC40C" d="M460.26 191.39a25.82 25.82 0 1 1-51.64 0 25.82 25.82 0 0 1 51.64 0M546.32 191.39a25.82 25.82 0 1 1-51.64 0 25.82 25.82 0 0 1 51.64 0"/>
  <path d="M435.13 164.57a12.51 12.51 0 1 0-15.35 4.4 26.62 26.62 0 0 0-11.07 28.89s8.28 1.05 12.31-6.27c4.03-7.33 2.21-14.6 2.21-14.6s1.67 7.8 11.33 10.44c9.66 2.64 25.62-2.99 25.62-2.99a26.58 26.58 0 0 0-25.05-19.87zM538.3 172.2a4.74 4.74 0 0 0 4.15-2.77s-2.64-1.47-4.41-1.3c-1.78.17-2.31 1.49-2.31 1.49s.54-1.22.05-2.63c-.49-1.41-1.97-1.47-1.97-1.47a4.7 4.7 0 0 0-.31 2.92 26.6 26.6 0 0 0-39.59 16.01s15.96 5.63 25.62 2.99c9.66-2.64 11.33-10.44 11.33-10.44s-1.82 7.27 2.21 14.6c4.03 7.32 12.31 6.27 12.31 6.27a26.57 26.57 0 0 0-7.08-25.67z"/>
  <path fill="#3FA9F5" d="M538.76 222.31l-13.34 18.85-13.33-18.83a45.66 45.66 0 0 0-32.28 43.65h91.29a45.64 45.64 0 0 0-32.34-43.67z"/>
  <path fill="#FFF" d="M525.42 231.16l-7.24-10.24c-2.08.33-4.11.8-6.08 1.41l13.33 18.83 13.34-18.85a45.64 45.64 0 0 0-6.09-1.4l-7.26 10.25z"/>
  <path fill="#ED1C24" d="M532.67 220.91a46.16 46.16 0 0 0-14.5.01l7.24 10.24 7.26-10.25z"/>
  <path fill="#ED1C24" d="M396.27 247.86a42.12 42.12 0 0 0-4.08 18.12h84.5c0-6.49-1.47-12.63-4.08-18.12h-76.34z"/>
  <path fill="#3FA9F5" d="M396.27 247.86h21.71l-10.3-14.55a42.29 42.29 0 0 0-11.41 14.55z"/>
  <path fill="#0071BC" d="M428.31 234.2l-6.13-8.66a42 42 0 0 0-14.5 7.77l10.3 14.55h20l-9.67-13.66z"/>
  <path fill="#3FA9F5" d="M472.61 247.86a42.34 42.34 0 0 0-25.92-22.31l-12.25 17.31-6.13-8.66 9.67 13.66h34.63z"/>
  <path fill="#FFF" d="M446.69 225.54a42.36 42.36 0 0 0-24.5 0l12.25 17.31 12.25-17.31z"/>
  <path fill="#ED1C24" d="M445.39 150.7a5.48 5.48 0 1 1-10.96 0 5.48 5.48 0 0 1 10.96 0zm-8.19 55.55c-.8 0-2.25 1.77-2.25 1.77s-1.44-1.77-2.25-1.77c-.38 0-.84.55-1.28.96-.5.47-.96.8-.96.8s2.01 4.49 4.49 4.49c2.48 0 4.49-4.49 4.49-4.49s-.46-.33-.96-.8c-.43-.41-.9-.96-1.28-.96zm-13.22-50.02l-16.06 6.18c-.4.15-.6.61-.45 1.01.16.4.61.6 1.01.45l16.06-6.18c.4-.15.6-.61.45-1.01a.78.78 0 0 0-1.01-.45z"/>
  <path fill="#666" d="M418.12 355.88l1.92-.61 3.54-15.62-1.85.05.23-1.32c1.47-.45 3.11-.88 4.47-.88 1.39 0 1.77.71 1.44 2.25l-.3 1.29h.13c1.62-2.33 3.08-3.56 5.1-3.56 2.07 0 3.28 1.82 3.28 4.09 0 5.53-3.23 10.36-8.21 10.36-.83 0-1.72-.18-2.35-.55l-.89 3.92 1.92.58-.25 1.14h-8.42l.24-1.14zm13.31-14.1c0-.86-.3-1.49-.96-1.49-.89 0-1.9.93-2.91 2.3l-1.67 7.23c.43.38.88.56 1.44.56 2.56-.01 4.1-5.74 4.1-8.6zm10.92 10.16c-3.82 0-5.61-2.48-5.61-5.58 0-5.28 3.94-8.87 8.62-8.87 2.43 0 4.15.96 4.15 2.93 0 2.93-3.08 4.7-8.31 5.23v.3c0 2.05.83 3.26 3.06 3.26 1.36 0 2.65-.45 3.79-1.21l-.35 1.9a7.67 7.67 0 0 1-5.35 2.04m-1.04-7.68c2.83-.43 4.52-1.92 4.52-3.99 0-.66-.25-1.06-.86-1.06-1.56-.01-3.2 2.02-3.66 5.05m8.52 1.79c0-3.92 2.5-8.57 8.11-8.57 4.19 0 5.99 2.81 5.96 5.86-.02 3.92-2.48 8.59-8.11 8.59-4.19.01-5.96-2.79-5.96-5.88m7.53 3.36c1.11-1.95 1.97-6.49 1.97-8.67 0-1.21-.4-1.85-1.39-1.85-.58 0-1.09.35-1.57 1.14-1.11 1.95-1.97 6.47-1.97 8.62 0 1.24.43 1.87 1.39 1.87.58.01 1.09-.35 1.57-1.11m4.45 6.47l1.92-.61 3.54-15.62-1.85.05.23-1.32c1.47-.45 3.11-.88 4.47-.88 1.39 0 1.77.71 1.44 2.25l-.3 1.29h.13c1.62-2.33 3.08-3.56 5.1-3.56 2.07 0 3.28 1.82 3.28 4.09 0 5.53-3.23 10.36-8.21 10.36-.83 0-1.72-.18-2.35-.55l-.88 3.92 1.92.58-.25 1.14h-8.42l.23-1.14zm13.31-14.1c0-.86-.3-1.49-.96-1.49-.89 0-1.9.93-2.91 2.3l-1.67 7.23c.43.38.88.56 1.44.56 2.56-.01 4.1-5.74 4.1-8.6zm5.54 7.28c-.45 1.9.1 2.86 2.12 2.86 1.46 0 3.11-.33 4.27-.88l.38-1.26-2.38.1 4.17-18.09-.35-.2-6.29.71-.25 1.39h1.82l-3.49 15.37m13.52 2.88c-3.82 0-5.61-2.48-5.61-5.58 0-5.28 3.94-8.87 8.62-8.87 2.43 0 4.15.96 4.15 2.93 0 2.93-3.08 4.7-8.31 5.23v.3c0 2.05.83 3.26 3.06 3.26 1.36 0 2.65-.45 3.79-1.21l-.35 1.9a7.67 7.67 0 0 1-5.35 2.04m-1.04-7.68c2.83-.43 4.52-1.92 4.52-3.99 0-.66-.25-1.06-.86-1.06-1.56-.01-3.2 2.02-3.66 5.05m-67.39-21.63c-10.21 0-14.91-4.81-14.91-10.73 0-4.76 3.31-8.41 8.76-10.09-4.87-3.19-7.48-6.73-7.48-11.54 0-6.73 5.04-10.96 14.21-10.96 9.63 0 13.63 4.47 13.63 9.92 0 4.7-3.65 7.71-8.18 8.99l.35.23c5.86 3.31 9.22 6.26 9.22 12.82 0 6.89-5.45 11.36-15.6 11.36zm.64-3.72c3.94 0 5.97-2.26 5.97-5.57 0-3.48-2.2-5.39-5.92-7.48l-3.48-2.03c-2.26 1.97-3.36 4.47-3.36 7.77 0 4.42 2.26 7.31 6.79 7.31zm1.8-22.73a8.7 8.7 0 0 0 3.25-6.96c0-4.41-2.38-6.2-5.45-6.2s-5.1 1.57-5.1 4.99c0 3.31 1.91 5.16 5.68 7.25l1.62.92zm16.53 20.47a5.84 5.84 0 0 0 5.92 5.97 5.86 5.86 0 0 0 5.98-5.97c0-3.19-2.44-5.8-5.98-5.8a5.73 5.73 0 0 0-5.92 5.8m30.16 5.98c-10.21 0-14.91-4.81-14.91-10.73 0-4.76 3.31-8.41 8.76-10.09-4.87-3.19-7.48-6.73-7.48-11.54 0-6.73 5.04-10.96 14.21-10.96 9.63 0 13.63 4.47 13.63 9.92 0 4.7-3.65 7.71-8.18 8.99l.35.23c5.86 3.31 9.22 6.26 9.22 12.82 0 6.89-5.45 11.36-15.6 11.36zm.63-3.72c3.94 0 5.97-2.26 5.97-5.57 0-3.48-2.2-5.39-5.92-7.48l-3.48-2.03c-2.26 1.97-3.36 4.47-3.36 7.77.01 4.42 2.27 7.31 6.79 7.31zm1.8-22.73a8.7 8.7 0 0 0 3.25-6.96c0-4.41-2.38-6.2-5.45-6.2s-5.1 1.57-5.1 4.99c0 3.31 1.91 5.16 5.68 7.25l1.62.92zm32.71 21.46H493.2v-3.77l18.91-27.32h8.52v26.62h4.23v4.47h-4.23v10.67h-10.61v-10.67zm0-4.47v-16.59h-.23L498.31 313v.17h11.71zm17.02 7.18v1.46h9.62v-1.46l-1.5-.85v-12.89a4.68 4.68 0 0 1 2.24-.58c1.46 0 2.18.75 2.18 2.62v10.85l-1.56.85v1.46h9.04v-1.46l-1.53-.85v-12.92a5.94 5.94 0 0 1 2.21-.54c1.39 0 2.21.75 2.21 2.62v10.85l-1.53.85v1.46h9.59v-1.46l-1.97-.85v-11.8c0-3.4-1.67-4.96-4.73-4.96a8.7 8.7 0 0 0-5.95 2.38h-.14c-.71-1.73-2.04-2.38-4.18-2.38-2.41 0-4.18.92-5.78 2.35h-.2v-2.18l-.75-.07-7.38 1.09v1.46l2.04.82v13.29l-1.93.84z"/>
  <path fill="#FFF" d="M764.16 308a45 45 0 0 1-89.6 5.96 3 3 0 1 1-.4-5.96 45 45 0 0 1 90 0zm-150 0a3 3 0 1 0 0 6 3 3 0 0 0 0-6zm-24 0a3 3 0 1 0 0 6 3 3 0 0 0 0-6zm-12 0a3 3 0 1 0 0 6 3 3 0 0 0 0-6zm24 0a3 3 0 1 0 0 6 3 3 0 0 0 0-6zm24 0a3 3 0 1 0 0 6 3 3 0 0 0 0-6zm36 0a3 3 0 1 0 0 6 3 3 0 0 0 0-6zm-12 0a3 3 0 1 0 0 6 3 3 0 0 0 0-6zm-12 0a3 3 0 1 0 0 6 3 3 0 0 0 0-6z"/>
  <path fill="#333" d="M782.66 311.87v-.8c0-2.79 1.74-4.19 4.11-4.19 2.64 0 4.08 1.42 4.08 4.1v.8c0 2.8-1.71 4.19-4.1 4.19-2.65-.01-4.09-1.46-4.09-4.1m5.75.06v-.91c0-2.02-.69-2.37-1.65-2.37-1.06 0-1.65.61-1.65 2.29v.91c0 1.97.72 2.35 1.68 2.35 1.04 0 1.62-.57 1.62-2.27m4.51 3.87h2.4v-6.95h1.82v-1.82h-1.82v-.69c0-.88.42-1.2 1.25-1.2.4 0 .8.05 1.01.1v-1.6c-.3-.16-.93-.3-1.76-.3-1.7 0-2.9.86-2.9 2.75v.95h-1.23v1.82h1.23v6.94zm8.67-.38c.58.3 1.23.51 2.39.51 2.34 0 3.46-1.41 3.46-3.35v-8.32h-2.59v7.99c0 1.09-.61 1.54-1.67 1.54-.62 0-1.17-.13-1.58-.27v1.9m7.09-1.97c0-1.76 1.12-2.42 2.9-2.64l1.71-.24v-.53c0-.93-.45-1.2-1.76-1.2-.83 0-1.6.13-2.16.26v-1.73c.85-.34 1.86-.5 3.09-.5 2.1 0 3.22.78 3.22 2.77v6.16h-1.97l-.19-.85h-.1c-.37.58-1.09 1.01-2.13 1.01-1.55 0-2.61-.83-2.61-2.51m4.61.53v-2.06l-1.22.13c-.74.08-1.07.45-1.07 1.23 0 .82.46 1.12 1.09 1.12.48 0 .96-.18 1.2-.42m4.11-6.95h2.32v.99h.08a2.96 2.96 0 0 1 2.46-1.15c1.7 0 3.14.93 3.14 3.95v.78c0 3.22-1.41 4.35-3.62 4.35-.98 0-1.63-.34-1.99-.64v3.73h-2.4v-12.01zm5.54 4.9v-.9c0-1.81-.56-2.21-1.68-2.21-.66 0-1.17.22-1.46.43v4.59c.27.21.8.4 1.38.4 1.15.01 1.76-.49 1.76-2.31zm3.42 1.52c0-1.76 1.12-2.42 2.9-2.64l1.71-.24v-.53c0-.93-.45-1.2-1.76-1.2-.83 0-1.6.13-2.16.26v-1.73c.85-.34 1.86-.5 3.09-.5 2.1 0 3.22.78 3.22 2.77v6.16h-1.97l-.19-.85h-.1c-.37.58-1.09 1.01-2.13 1.01-1.55 0-2.61-.83-2.61-2.51m4.61.53v-2.06l-1.22.13c-.74.08-1.07.45-1.07 1.23 0 .82.46 1.12 1.09 1.12.48 0 .96-.18 1.2-.42m4.13 1.82h2.39v-6.56a3.72 3.72 0 0 1 1.55-.37c.91 0 1.22.29 1.22 1.07v5.86h2.39v-6.53c0-1.7-.88-2.4-2.45-2.4-1.06 0-2 .43-2.7 1.18h-.08v-1.02h-2.31v8.77zm8.85-7.52h1.87l.77-4.02h-2.37l-.27 4.02zm3.4 7.14a6.2 6.2 0 0 0 2.88.54c2.3 0 3.49-.99 3.49-2.86 0-1.59-.66-2.34-2.42-2.67l-.77-.14c-.77-.14-.99-.34-.99-.78 0-.5.34-.78 1.38-.78.99 0 1.78.18 2.3.37v-1.79a6.35 6.35 0 0 0-2.59-.42c-2.24 0-3.3 1.04-3.3 2.8 0 1.58.88 2.35 2.27 2.62l.78.14c.83.16 1.02.37 1.02.83 0 .51-.3.83-1.54.83a6.3 6.3 0 0 1-2.53-.51v1.82m-63.62 16.14c0 1.83.94 2.37 2.55 2.37.85 0 1.52-.21 1.87-.4v-1.62c-.27.08-.69.14-.99.14-.75 0-1.04-.18-1.04-.86v-4.34h1.95v-1.82h-1.95v-2.08h-2.39v2.08h-1.25v1.82h1.25v4.71m5.4-1.69v-.8c0-2.79 1.74-4.19 4.11-4.19 2.64 0 4.08 1.42 4.08 4.1v.8c0 2.8-1.71 4.19-4.1 4.19-2.65-.01-4.09-1.46-4.09-4.1m5.75.06v-.91c0-2.02-.69-2.37-1.65-2.37-1.06 0-1.65.61-1.65 2.29v.91c0 1.97.72 2.35 1.68 2.35 1.04 0 1.62-.57 1.62-2.27m4.49 1.63c0 1.83.94 2.37 2.54 2.37.85 0 1.52-.21 1.87-.4v-1.62c-.27.08-.69.14-.99.14-.75 0-1.04-.18-1.04-.86v-4.34h1.95v-1.82h-1.95v-2.08h-2.38v2.08h-1.25v1.82h1.25v4.71m5.32-.11c0-1.76 1.12-2.42 2.9-2.64l1.71-.24v-.53c0-.93-.45-1.2-1.76-1.2-.83 0-1.6.13-2.16.26v-1.73c.85-.34 1.86-.5 3.09-.5 2.1 0 3.22.78 3.22 2.77v6.16h-1.97l-.19-.85h-.1c-.37.58-1.09 1.01-2.13 1.01-1.56 0-2.61-.83-2.61-2.51m4.61.53v-2.06l-1.22.13c-.74.08-1.07.45-1.07 1.23 0 .82.46 1.12 1.09 1.12.47 0 .96-.18 1.2-.42m4.11-.26c0 1.62.79 2.21 2.23 2.21.75 0 1.3-.18 1.57-.34v-1.55c-.18.03-.4.08-.62.08-.58 0-.78-.21-.78-.78v-9.84h-2.39v10.22m8.45-6.69h2.32v.99h.08a2.97 2.97 0 0 1 2.47-1.15c1.7 0 3.14.93 3.14 3.95v.78c0 3.22-1.41 4.35-3.62 4.35-.98 0-1.63-.34-1.99-.64v3.73h-2.4v-12.01zm5.54 4.9v-.9c0-1.81-.56-2.21-1.68-2.21-.66 0-1.17.22-1.46.43v4.59c.27.21.8.4 1.38.4 1.15.01 1.76-.49 1.76-2.31zm3.48-.06v-.8c0-2.79 1.74-4.19 4.11-4.19 2.64 0 4.08 1.42 4.08 4.1v.8c0 2.8-1.71 4.19-4.1 4.19-2.65-.01-4.09-1.46-4.09-4.1m5.75.06v-.91c0-2.02-.69-2.37-1.65-2.37-1.06 0-1.65.61-1.65 2.29v.91c0 1.97.72 2.35 1.68 2.35 1.04 0 1.62-.57 1.62-2.27m3.82-4.9h2.32v.99h.08a2.97 2.97 0 0 1 2.47-1.15c1.7 0 3.14.93 3.14 3.95v.78c0 3.22-1.41 4.35-3.62 4.35-.98 0-1.63-.34-1.99-.64v3.73h-2.4v-12.01zm5.54 4.9v-.9c0-1.81-.56-2.21-1.68-2.21-.66 0-1.17.22-1.46.43v4.59c.27.21.8.4 1.38.4 1.15.01 1.76-.49 1.76-2.31zm3.84 1.5c0 1.71.9 2.55 2.48 2.55 1.06 0 1.87-.45 2.61-1.2h.08l.18 1.02h2.08v-8.77h-2.4v6.56c-.4.21-.94.45-1.52.45-.88 0-1.12-.35-1.12-1.17v-5.84h-2.39v6.4m9.2.29c0 1.62.79 2.21 2.23 2.21.75 0 1.3-.18 1.57-.34v-1.55c-.18.03-.4.08-.62.08-.58 0-.78-.21-.78-.78v-9.84h-2.39v10.22m4.44-.27c0-1.76 1.12-2.42 2.9-2.64l1.71-.24v-.53c0-.93-.45-1.2-1.76-1.2-.83 0-1.6.13-2.16.26v-1.73c.85-.34 1.86-.5 3.09-.5 2.1 0 3.22.78 3.22 2.77v6.16h-1.97l-.19-.85h-.1c-.37.58-1.09 1.01-2.13 1.01-1.56 0-2.61-.83-2.61-2.51m4.61.53v-2.06l-1.22.13c-.74.08-1.07.45-1.07 1.23 0 .82.47 1.12 1.09 1.12.48 0 .96-.18 1.2-.42m4.78-.42c0 1.83.94 2.37 2.55 2.37.85 0 1.52-.21 1.87-.4v-1.62c-.27.08-.69.14-.99.14-.75 0-1.04-.18-1.04-.86v-4.34h1.95v-1.82h-1.95v-2.08h-2.39v2.08h-1.25v1.82h1.25v4.71m5.76-7.86h2.42v-2.11h-2.42v2.11zm.01 10.1h2.39v-8.77h-2.39v8.77zm3.78-3.93v-.8c0-2.79 1.74-4.19 4.11-4.19 2.64 0 4.08 1.42 4.08 4.1v.8c0 2.8-1.71 4.19-4.1 4.19-2.65-.01-4.09-1.46-4.09-4.1m5.75.06v-.91c0-2.02-.69-2.37-1.65-2.37-1.06 0-1.65.61-1.65 2.29v.91c0 1.97.72 2.35 1.68 2.35 1.04 0 1.62-.57 1.62-2.27m3.83 3.87h2.39v-6.56a3.72 3.72 0 0 1 1.55-.37c.91 0 1.22.29 1.22 1.07v5.86h2.38v-6.53c0-1.7-.88-2.4-2.45-2.4-1.06 0-2 .43-2.7 1.18h-.08v-1.02H892v8.77zm-109.25 16.55v-.57c0-2.42 1.27-3.45 3.04-3.45.82 0 1.38.22 1.74.43v-3.35h1.17v10h-.99l-.12-.56h-.07c-.4.42-1.05.69-1.96.69-1.3-.01-2.81-.76-2.81-3.19m4.78 1.66v-4.25c-.3-.23-.92-.42-1.6-.42-1.23 0-1.98.58-1.98 2.26v.69c0 1.76.8 2.28 1.99 2.28.76 0 1.29-.31 1.59-.56m2.37-1.79v-.58c0-2.29 1.43-3.3 3-3.3 1.89 0 2.78 1.09 2.78 3.15v.81h-4.58c.03 1.65.83 2.22 2.24 2.22.92 0 1.51-.2 2.13-.52v.87a3.8 3.8 0 0 1-2.31.68c-2.16-.02-3.26-1.32-3.26-3.33m1.21-.9h3.33c0-1.46-.55-2.03-1.59-2.03-.78 0-1.7.41-1.74 2.03m5.39 3.72c.57.32 1.33.48 2.21.48 1.49 0 2.46-.7 2.46-2.07 0-1.22-.55-1.69-1.89-2.04l-.65-.17c-.69-.18-.99-.43-.99-.99 0-.61.46-.92 1.34-.92.75 0 1.46.21 1.81.36v-.96c-.39-.19-.95-.4-1.87-.4-1.64 0-2.39.83-2.39 2.04s.71 1.68 1.7 1.94l.65.17c.83.22 1.13.52 1.13 1.09 0 .6-.44.95-1.46.95a4.6 4.6 0 0 1-2.05-.43v.95m5.79-6.58h1.12v.56h.06a2.94 2.94 0 0 1 1.98-.69c1.47 0 2.8.79 2.8 3.21v.58c0 2.4-1.2 3.41-3.08 3.41-.77 0-1.34-.22-1.7-.44v2.95h-1.17v-9.58zm4.74 3.82v-.69c0-1.74-.69-2.25-1.91-2.25-.76 0-1.38.26-1.66.47v4.28c.29.25.91.48 1.6.48 1.23 0 1.97-.6 1.97-2.29zm2.45-5.2h1.25v-1.22h-1.25v1.22zm.04 8.32h1.17v-6.94h-1.17v6.94zm3.38-1.62c0 1.24.83 1.7 1.92 1.7.61 0 1.01-.17 1.3-.33v-.79c-.27.08-.71.14-1 .14-.77 0-1.04-.23-1.04-.9v-4.16h1.91v-.99h-1.91v-1.64h-1.18v1.64h-1.17v.99h1.17v4.34m3.86-1.56v-.58c0-2.29 1.43-3.3 3-3.3 1.89 0 2.78 1.09 2.78 3.15v.81h-4.58c.03 1.65.83 2.22 2.24 2.22.92 0 1.51-.2 2.13-.52v.87a3.8 3.8 0 0 1-2.31.68c-2.16-.02-3.26-1.32-3.26-3.33m1.21-.9h3.33c0-1.46-.55-2.03-1.59-2.03-.78 0-1.71.41-1.74 2.03m8.72 3.88v-9.79h1.17v3.48h.06a3.75 3.75 0 0 1 2.07-.56c1.27 0 2.65.66 2.65 3.12v.73c0 2.12-1.18 3.41-3.45 3.41-.77 0-1.92-.16-2.5-.39m4.74-2.85v-.82c0-1.7-.64-2.18-2-2.18-.64 0-1.26.26-1.57.39v4.61c.29.1.74.23 1.43.23 1.13 0 2.14-.48 2.14-2.23m2.02-.13v-.58c0-2.29 1.43-3.3 3-3.3 1.89 0 2.78 1.09 2.78 3.15v.81h-4.58c.03 1.65.83 2.22 2.24 2.22.92 0 1.51-.2 2.13-.52v.87a3.8 3.8 0 0 1-2.31.68c-2.16-.02-3.26-1.32-3.26-3.33m1.21-.9h3.33c0-1.46-.55-2.03-1.59-2.03-.78 0-1.7.41-1.74 2.03m5.77-4.24h1.25v-1.22h-1.25v1.22zm.04 8.32h1.17v-6.94h-1.17v6.94zm2.83 0h1.17v-5.59c.49-.22 1.2-.46 1.79-.46 1.08 0 1.34.34 1.34 1.13v4.91h1.17v-5.16c0-1.34-.64-1.91-1.99-1.91-.83 0-1.73.32-2.3.73h-.07v-.6h-1.12v6.95zm7.05 2.24v-.89c.34.14 1.28.42 2.2.42 1.38 0 2.2-.45 2.2-1.81v-.79h-.06c-.4.39-.99.65-1.9.65-1.31 0-2.82-.69-2.82-3.03v-.57c0-2.34 1.27-3.29 3.04-3.29.82 0 1.38.29 1.74.53h.07l.12-.4h.99v7.03c0 1.95-1.14 2.68-3.15 2.68a5 5 0 0 1-2.43-.53m4.39-3.95v-3.84c-.3-.25-.92-.49-1.6-.49-1.23 0-1.98.47-1.98 2.09v.69c0 1.69.8 2.11 1.99 2.11.76 0 1.29-.31 1.59-.56m6.3.09c0 1.24.83 1.7 1.92 1.7.61 0 1.01-.17 1.3-.33v-.79c-.27.08-.72.14-1 .14-.77 0-1.04-.23-1.04-.9v-4.16h1.91v-.99h-1.91v-1.64h-1.18v1.64h-1.17v.99h1.17v4.34m4.22 1.62h1.17v-5.59c.49-.22 1.2-.46 1.79-.46 1.08 0 1.34.34 1.34 1.13v4.91h1.17v-5.16c0-1.34-.64-1.91-1.99-1.91-.83 0-1.69.31-2.25.7h-.06v-3.63h-1.17v10.01zm6.62-3.18v-.58c0-2.29 1.43-3.3 3-3.3 1.89 0 2.78 1.09 2.78 3.15v.81h-4.58c.03 1.65.83 2.22 2.24 2.22.92 0 1.51-.2 2.13-.52v.87a3.8 3.8 0 0 1-2.31.68c-2.16-.02-3.26-1.32-3.26-3.33m1.21-.9h3.33c0-1.46-.55-2.03-1.59-2.03-.78 0-1.71.41-1.74 2.03m-90.33 19.32c.57.33 1.33.48 2.21.48 1.49 0 2.46-.7 2.46-2.07 0-1.22-.55-1.69-1.89-2.04l-.65-.17c-.69-.18-.99-.43-.99-.99 0-.61.45-.92 1.34-.92.75 0 1.46.21 1.81.36v-.96a3.9 3.9 0 0 0-1.87-.4c-1.64 0-2.39.83-2.39 2.04s.71 1.68 1.7 1.94l.65.17c.83.22 1.13.52 1.13 1.09 0 .6-.44.95-1.46.95-.98 0-1.47-.19-2.06-.43v.95m5.37-2.82v-.58c0-2.29 1.43-3.3 3-3.3 1.89 0 2.78 1.09 2.78 3.15v.81h-4.58c.03 1.65.83 2.22 2.24 2.22.92 0 1.51-.2 2.13-.52v.87a3.8 3.8 0 0 1-2.31.68c-2.16-.02-3.26-1.32-3.26-3.33m1.21-.9h3.33c0-1.46-.55-2.03-1.59-2.03-.78 0-1.7.41-1.74 2.03m5.34.96c0 2.2 1.23 3.25 3.19 3.25.95 0 1.56-.25 2.01-.55v-.95c-.35.17-.96.48-1.88.48-1.39 0-2.11-.62-2.11-2.28v-.75c0-1.44.75-2.15 1.96-2.15.9 0 1.33.18 1.94.43v-.99a3.28 3.28 0 0 0-1.86-.46c-1.79 0-3.25 1.01-3.25 3.34v.63m5.79-.01v-.62c0-2.04 1.25-3.32 3.13-3.32 1.95 0 3.11 1.24 3.11 3.28v.61c0 2.05-1.25 3.32-3.12 3.32-1.98-.01-3.12-1.21-3.12-3.27m5.01.08v-.77c0-1.74-.85-2.28-1.91-2.28-1.21 0-1.9.82-1.9 2.22v.77c0 1.76.87 2.28 1.94 2.28 1.19 0 1.87-.79 1.87-2.22m2.42 3.05h1.17v-5.59a4.78 4.78 0 0 1 1.79-.46c1.08 0 1.34.34 1.34 1.13V369h1.17v-5.16c0-1.34-.64-1.91-1.99-1.91a4.3 4.3 0 0 0-2.3.73H809v-.6h-1.12V369zm6.66-3.05v-.57c0-2.42 1.27-3.45 3.04-3.45.82 0 1.38.22 1.74.43v-3.35h1.17v10h-.99l-.12-.56h-.06c-.4.42-1.05.69-1.96.69-1.31-.01-2.82-.76-2.82-3.19m4.78 1.66v-4.25c-.3-.23-.92-.42-1.6-.42-1.24 0-1.98.58-1.98 2.26v.69c0 1.76.81 2.28 1.99 2.28.76 0 1.29-.31 1.59-.56m5.37 1.03c.57.33 1.33.48 2.21.48 1.49 0 2.46-.7 2.46-2.07 0-1.22-.55-1.69-1.89-2.04l-.65-.17c-.69-.18-.99-.43-.99-.99 0-.61.45-.92 1.34-.92.75 0 1.46.21 1.81.36v-.96a3.9 3.9 0 0 0-1.87-.4c-1.64 0-2.39.83-2.39 2.04s.71 1.68 1.7 1.94l.65.17c.83.22 1.13.52 1.13 1.09 0 .6-.44.95-1.46.95-.98 0-1.47-.19-2.06-.43v.95m5.8.36h1.17v-5.59a4.07 4.07 0 0 1 1.62-.46c.91 0 1.18.34 1.18 1.13V369h1.17v-5.16c0-.16-.01-.27-.03-.4a3.87 3.87 0 0 1 1.65-.48c.91 0 1.2.34 1.2 1.13V369h1.17v-5.16c0-1.34-.7-1.91-1.9-1.91-.77 0-1.56.29-2.27.77h-.07c-.33-.52-.87-.77-1.64-.77-.77 0-1.51.34-2.08.73h-.07v-.6h-1.12V369zm10.27-1.83c0-1.21.74-1.86 2.07-2.02l1.81-.21v-.68c0-1.05-.45-1.31-1.68-1.31-.66 0-1.21.1-1.62.21v-.86a5.3 5.3 0 0 1 2.09-.38c1.52 0 2.38.65 2.38 2.04V369h-.94l-.13-.59h-.08c-.32.39-.88.72-1.78.72-1.24 0-2.12-.62-2.12-1.96m3.87.57v-1.91l-1.51.16c-.75.08-1.16.39-1.16 1.14 0 .74.48 1.09 1.21 1.09.59 0 1.17-.2 1.46-.48m2.79-.31c0 1.24.62 1.65 1.57 1.65.57 0 .83-.13 1.11-.25V368c-.27.07-.57.1-.79.1-.47 0-.7-.15-.7-.82V359h-1.18v8.43m3.57 0c0 1.24.62 1.65 1.57 1.65.57 0 .83-.13 1.11-.25V368c-.27.07-.57.1-.79.1-.47 0-.7-.15-.7-.82V359H851v8.43m3.1-1.61v-.58c0-2.29 1.43-3.3 3-3.3 1.89 0 2.78 1.09 2.78 3.15v.81h-4.58c.03 1.65.83 2.22 2.24 2.22.92 0 1.51-.2 2.13-.52v.87a3.8 3.8 0 0 1-2.31.68c-2.15-.02-3.26-1.32-3.26-3.33m1.21-.9h3.33c0-1.46-.55-2.03-1.59-2.03-.77 0-1.7.41-1.74 2.03m5.4 3.72c.57.33 1.33.48 2.21.48 1.49 0 2.46-.7 2.46-2.07 0-1.22-.55-1.69-1.89-2.04l-.65-.17c-.69-.18-.99-.43-.99-.99 0-.61.46-.92 1.34-.92.75 0 1.46.21 1.81.36v-.96a3.9 3.9 0 0 0-1.87-.4c-1.64 0-2.39.83-2.39 2.04s.72 1.68 1.7 1.94l.65.17c.83.22 1.13.52 1.13 1.09 0 .6-.44.95-1.46.95-.98 0-1.47-.19-2.06-.43v.95m6.21-1.26c0 1.23.83 1.7 1.92 1.7.61 0 1.01-.17 1.3-.33v-.79c-.27.08-.71.14-1 .14-.77 0-1.04-.23-1.04-.9v-4.16H870v-.99h-1.91v-1.64h-1.18v1.64h-1.17v.99h1.17v4.34m7.18-5.32h1.12v.56h.07a2.94 2.94 0 0 1 1.98-.69c1.47 0 2.8.79 2.8 3.21v.58c0 2.41-1.2 3.41-3.08 3.41-.77 0-1.34-.22-1.7-.44v2.95h-1.17v-9.58zm4.74 3.82v-.69c0-1.74-.69-2.25-1.91-2.25-.76 0-1.38.26-1.66.47v4.28c.28.25.91.48 1.6.48 1.23 0 1.97-.6 1.97-2.29zm2.44 3.12h1.17v-5.37a3.65 3.65 0 0 1 1.86-.58c.12 0 .35.01.52.05v-1.07a1.43 1.43 0 0 0-.43-.05c-.73 0-1.55.43-1.94.9h-.07v-.82h-1.12V369zm4.04-3.18v-.58c0-2.29 1.43-3.3 3-3.3 1.89 0 2.78 1.09 2.78 3.15v.81h-4.58c.03 1.65.83 2.22 2.24 2.22.92 0 1.51-.2 2.13-.52v.87a3.8 3.8 0 0 1-2.31.68c-2.16-.02-3.26-1.32-3.26-3.33m1.21-.9h3.33c0-1.46-.55-2.03-1.59-2.03-.78 0-1.71.41-1.74 2.03m6.34 4.08h1.18v-5.95h1.74v-.99h-1.74v-.88c0-.92.42-1.3 1.18-1.3.47 0 .83.08 1.03.13v-.85a2.67 2.67 0 0 0-1.25-.27c-1.24 0-2.15.66-2.15 2.2v.98h-1.2v.99h1.2V369zm3.51-3.18v-.58c0-2.29 1.43-3.3 3-3.3 1.89 0 2.78 1.09 2.78 3.15v.81h-4.58c.03 1.65.83 2.22 2.24 2.22.92 0 1.51-.2 2.13-.52v.87a3.8 3.8 0 0 1-2.31.68c-2.16-.02-3.26-1.32-3.26-3.33m1.21-.9h3.33c0-1.46-.55-2.03-1.59-2.03-.78 0-1.7.41-1.74 2.03m5.34.96c0 2.2 1.23 3.25 3.19 3.25.95 0 1.56-.25 2.01-.55v-.95c-.35.17-.96.48-1.88.48-1.39 0-2.11-.62-2.11-2.28v-.75c0-1.44.75-2.15 1.96-2.15.9 0 1.33.18 1.94.43v-.99a3.28 3.28 0 0 0-1.86-.46c-1.79 0-3.25 1.01-3.25 3.34v.63m6.89 1.5c0 1.23.83 1.7 1.92 1.7.61 0 1.01-.17 1.3-.33v-.79c-.27.08-.71.14-1 .14-.77 0-1.04-.23-1.04-.9v-4.16h1.91v-.99h-1.91v-1.64h-1.18v1.64h-1.17v.99h1.17v4.34m4.19-.29c0 1.34.74 2.04 2.08 2.04a3.6 3.6 0 0 0 2.11-.73h.08l.12.6h1v-6.94h-1.18v5.55c-.48.26-1.06.49-1.77.49-.99 0-1.26-.35-1.26-1.2v-4.85H914v5.04m6.99 1.91h1.17v-5.37a3.65 3.65 0 0 1 1.86-.58c.12 0 .35.01.52.05v-1.07a1.43 1.43 0 0 0-.43-.05c-.73 0-1.55.43-1.94.9h-.07v-.82h-1.12V369zm4.03-3.18v-.58c0-2.29 1.43-3.3 3-3.3 1.89 0 2.78 1.09 2.78 3.15v.81h-4.58c.03 1.65.83 2.22 2.24 2.22.92 0 1.51-.2 2.13-.52v.87a3.8 3.8 0 0 1-2.31.68c-2.16-.02-3.26-1.32-3.26-3.33m1.21-.9h3.33c0-1.46-.55-2.03-1.59-2.03-.78 0-1.7.41-1.74 2.03M699.41 327.6h9.39l16.6-28.82 1.18-5.14h-21.56l-2.83 10.42h2.83l2.59-4.01h13.3l-.05.24-21.45 27.31zm26.49-27.32c0-2.57 1.8-5.5 5.08-5.5 2.34 0 3.72 1.57 3.72 4.14 0 2.53-1.87 5.41-5.13 5.41-2.43 0-3.67-1.57-3.67-4.05zm15.07-5.25h2.15l-14.14 17.16h-2.13l14.12-17.16zm-10.41 7.52c.75-1.1 1.26-3.61 1.26-5.08 0-1.03-.28-1.48-.91-1.48-.33 0-.66.19-.94.54-.77 1.12-1.22 3.74-1.22 5.15 0 .98.26 1.43.89 1.43.33 0 .66-.17.92-.56zm4.89 5.59c0-2.58 1.78-5.5 5.05-5.5 2.37 0 3.72 1.57 3.72 4.14 0 2.53-1.87 5.41-5.1 5.41-2.43 0-3.67-1.57-3.67-4.05zm4.66 2.27c.75-1.1 1.24-3.6 1.24-5.1 0-1.01-.26-1.45-.89-1.45-.35 0-.68.16-.94.54-.77 1.12-1.24 3.74-1.24 5.15 0 .98.26 1.43.89 1.43.33-.01.66-.19.94-.57z"/>
  <path fill="#FFC40C" d="M321.96 416.77A84.48 84.48 0 1 1 441.4 536.23a84.48 84.48 0 0 1-119.44-119.46"/>
  <g stroke="#FFC40C" stroke-dasharray="0,37,0" stroke-dashoffset="37" stroke-linecap="round" stroke-width="10">
    <line x1="381.69" x2="381.69" y2="342.02" y1="379.02"/>
    <line x1="479.16" x2="516.16" y1="476.5" y2="476.5"/>
    <line x1="381.69" x2="381.69" y1="573.97" y2="610.97"/>
    <line x2="247.22" x1="284.22" y2="476.5" y1="476.5"/>
    <animate attributeName="stroke-dashoffset" from="74" to="0" dur="1s" repeatCount="indefinite"/>
  </g>
  <g stroke="#FFC40C" stroke-dasharray="0,37,0" stroke-dashoffset="37" stroke-linecap="round" stroke-width="10">
    <line x1="450.61" x2="476.78" y1="407.57" y2="381.41"/>
    <line x1="450.61" x2="476.78" y1="545.42" y2="571.59"/>
    <line x2="286.6" x1="312.77" y2="571.59" y1="545.42"/>
    <line x2="286.6" x1="312.77" y2="381.41" y1="407.57"/>
    <animate attributeName="stroke-dashoffset" from="74" to="0" dur="1s" begin="-0.5s" repeatCount="indefinite"/>
  </g>
  <path fill="#333" d="M358.31 427.9c0-.48.05-1.01.14-1.57l.19-1.11c.67-3.79 2.99-4.98 5.52-4.98 2.93 0 4.48 1.47 4.48 4.22 0 .5-.05 1.03-.16 1.6l-.19 1.12c-.66 3.78-2.95 4.96-5.39 4.96-2.96.02-4.59-1.47-4.59-4.24m7.27-.78l.22-1.31a9.3 9.3 0 0 0 .18-1.6c0-1.3-.5-2-1.97-2-1.51 0-2.26.94-2.62 3.04l-.24 1.31a9.4 9.4 0 0 0-.18 1.6c0 1.35.53 2.05 1.99 2.05 1.43 0 2.23-.99 2.62-3.09m2.87 4.22c.61.42 1.58.78 3.02.78 2.3 0 3.49-1.14 3.49-3.06 0-1.18-.54-1.89-1.9-2.35l-.62-.23c-.62-.22-.86-.38-.86-.83 0-.5.29-.78 1.22-.78.99 0 1.83.32 2.31.53l.32-1.71a4.86 4.86 0 0 0-2.72-.67c-2.05 0-3.3 1.04-3.3 3.04 0 1.26.66 1.9 1.81 2.3l.64.23c.69.26.85.42.85.83 0 .51-.35.85-1.35.85a5.06 5.06 0 0 1-2.59-.69l-.32 1.76m7.14-1.9c0-.43.05-.91.14-1.46l.14-.8c.54-3.07 2.26-4.16 4.63-4.16 1.68 0 2.71.29 3.51.66l-.91 5.23c-.18.94-.22 1.68-.26 2.43v.62h-2.05l-.16-1.18h-.08a3.52 3.52 0 0 1-2.66 1.34c-1.42.01-2.3-.82-2.3-2.68m5.01.08l.8-4.56a2.9 2.9 0 0 0-1.06-.14c-1.04 0-1.73.58-2.03 2.31l-.16.91c-.08.42-.11.78-.11 1.07 0 .9.35 1.15.98 1.15.64-.01 1.2-.42 1.58-.74m5.44-9.86h2.39l-2.18 12.31h-2.38l2.17-12.31zm1.18 7.65l2.95-4.11h2.56l-3.14 4.16 1.68 4.61h-2.45l-1.6-4.66zm4.59 2.13c0-.43.05-.91.14-1.46l.14-.8c.54-3.07 2.26-4.16 4.63-4.16a8 8 0 0 1 3.51.66l-.91 5.23c-.18.94-.22 1.68-.26 2.43v.62h-2.05l-.16-1.18h-.08a3.52 3.52 0 0 1-2.66 1.34c-1.42.01-2.3-.82-2.3-2.68m5.01.08l.8-4.56c-.29-.1-.55-.14-1.06-.14-1.04 0-1.73.58-2.03 2.31l-.16.91c-.08.42-.11.78-.11 1.07 0 .9.35 1.15.98 1.15.64-.01 1.2-.42 1.58-.74m4.37-5.08h1.89l1.35-4.02h-2.37l-.87 4.02zm2 6.9c.61.42 1.58.78 3.02.78 2.3 0 3.49-1.14 3.49-3.06 0-1.18-.54-1.89-1.9-2.35l-.62-.23c-.62-.22-.86-.38-.86-.83 0-.5.29-.78 1.22-.78.99 0 1.83.32 2.3.53l.32-1.71a4.86 4.86 0 0 0-2.72-.67c-2.05 0-3.3 1.04-3.3 3.04 0 1.26.66 1.9 1.81 2.3l.64.23c.69.26.85.42.85.83 0 .51-.35.85-1.35.85a5.06 5.06 0 0 1-2.59-.69l-.31 1.76m-67.43 16.63h2.38l1.12-6.39a2.9 2.9 0 0 1 1.66-.61c.64 0 .9.23.9.74l-.03.38-1.04 5.87h2.39l1.1-6.31c.05-.26.06-.5.06-.7 0-1.27-.74-1.94-2.03-1.94-1.06 0-1.97.56-2.7 1.3h-.08l.83-4.66h-2.38l-2.18 12.32zm8.92-3.17c0-.35.03-.72.1-1.09l.14-.82c.48-2.72 2.21-3.87 4.34-3.87 2.48 0 3.62 1.25 3.62 3.28 0 .38-.03.77-.11 1.18l-.13.82c-.48 2.74-2.08 3.82-4.24 3.82-2.6.01-3.72-1.35-3.72-3.32m5.52-.58l.16-.93c.08-.42.11-.78.11-1.07 0-1.07-.46-1.42-1.33-1.42-.96 0-1.54.56-1.83 2.18l-.16.93c-.06.38-.1.72-.1 1.01 0 1.11.51 1.46 1.38 1.46.95-.01 1.5-.51 1.77-2.16m3.52 1.97c0 1.34.9 1.9 2.4 1.9a3.7 3.7 0 0 0 1.68-.4l.29-1.58c-.29.06-.69.14-1.01.14-.78 0-.99-.3-.85-1.06l.72-4.18h1.87l.32-1.82h-1.87l.37-2.08h-2.39l-.37 2.08h-1.12l-.32 1.82h1.12l-.79 4.48c-.03.27-.05.49-.05.7m5.57 0c0 1.34.9 1.9 2.4 1.9a3.7 3.7 0 0 0 1.68-.4l.29-1.58c-.29.06-.69.14-1.01.14-.78 0-.99-.3-.85-1.06l.72-4.18h1.87l.32-1.82h-1.87l.37-2.08h-2.38l-.37 2.08h-1.12l-.32 1.82h1.12l-.79 4.48c-.05.27-.06.49-.06.7m5.05-1.39c0-.39.05-.78.13-1.2l.16-.82c.48-2.62 2.03-3.76 4.14-3.76 2.39 0 3.38 1.05 3.38 3.02 0 .42-.03.88-.13 1.38l-.14.88h-5.09l-.03.42c0 1.14.62 1.55 2.3 1.55.82 0 1.43-.13 2.21-.37l-.3 1.65c-.7.34-1.54.58-2.58.58-2.9 0-4.05-1.33-4.05-3.33m2.66-2.05h2.8c.06-.32.1-.59.1-.83 0-.8-.35-1.17-1.13-1.17-.78 0-1.45.27-1.77 2m4.97 4.59c.61.42 1.59.78 3.03.78 2.3 0 3.49-1.14 3.49-3.06 0-1.18-.54-1.89-1.9-2.35l-.62-.23c-.62-.22-.87-.38-.87-.83 0-.5.29-.78 1.22-.78.99 0 1.83.32 2.3.53l.32-1.71a4.86 4.86 0 0 0-2.72-.67c-2.05 0-3.3 1.04-3.3 3.04 0 1.26.66 1.9 1.81 2.3l.64.23c.69.26.85.42.85.83 0 .51-.35.85-1.35.85a5.06 5.06 0 0 1-2.59-.69l-.31 1.76m7.65-1.15c0 1.34.9 1.9 2.4 1.9a3.7 3.7 0 0 0 1.68-.4l.29-1.58c-.29.06-.69.14-1.01.14-.78 0-.99-.3-.85-1.06l.72-4.18h1.87l.32-1.82h-1.87l.37-2.08h-2.39l-.37 2.08h-1.12l-.32 1.82h1.12l-.79 4.48c-.03.27-.05.49-.05.7m7.97 1.78h2.39l1.15-6.47c.45-.3.91-.53 1.54-.53.5 0 .72.27.72.75 0 .1-.02.22-.05.35l-1.04 5.89h2.4l1.1-6.24.03-.22c.46-.32.91-.53 1.54-.53.5 0 .7.26.7.72l-.03.38-1.04 5.89h2.38l1.1-6.21c.05-.26.07-.51.07-.75 0-1.28-.7-1.99-1.89-1.99-1.02 0-1.94.48-2.87 1.42h-.08c-.18-.94-.77-1.42-1.71-1.42-1.06 0-1.87.5-2.69 1.36h-.08l.19-1.18h-2.3l-1.53 8.78zm13.33-3.17c0-.35.03-.72.1-1.09l.14-.82c.48-2.72 2.21-3.87 4.34-3.87 2.48 0 3.62 1.25 3.62 3.28 0 .38-.03.77-.11 1.18l-.13.82c-.48 2.74-2.08 3.82-4.24 3.82-2.6.01-3.72-1.35-3.72-3.32m5.52-.58l.16-.93c.08-.42.11-.78.11-1.07 0-1.07-.46-1.42-1.33-1.42-.96 0-1.54.56-1.83 2.18l-.16.93c-.06.38-.1.72-.1 1.01 0 1.11.51 1.46 1.38 1.46.95-.01 1.5-.51 1.77-2.16m2.7 3.75h2.39l1.14-6.39c.5-.34.99-.61 1.66-.61.64 0 .9.23.9.74 0 .11-.01.24-.05.38l-1.02 5.87h2.39l1.1-6.31c.05-.26.07-.5.07-.7 0-1.26-.74-1.94-2.05-1.94-1.04 0-1.97.56-2.8 1.36h-.08l.21-1.18h-2.29l-1.57 8.78zm9.47-1.78c0 1.34.9 1.9 2.4 1.9a3.7 3.7 0 0 0 1.68-.4l.29-1.58c-.29.06-.69.14-1.01.14-.78 0-.99-.3-.85-1.06l.72-4.18h1.87l.32-1.82h-1.87l.37-2.08h-2.38l-.37 2.08h-1.12l-.32 1.82h1.12l-.79 4.48c-.04.27-.06.49-.06.7m4.82 1.78h2.39l1.12-6.39a2.9 2.9 0 0 1 1.66-.61c.64 0 .9.23.9.74l-.03.38-1.04 5.87h2.38l1.11-6.31c.05-.26.06-.5.06-.7 0-1.27-.74-1.94-2.03-1.94-1.06 0-1.97.56-2.71 1.3h-.08l.83-4.66h-2.39l-2.17 12.32zm-98.24 63.64h1.09l3 8.65h-1.16l-.83-2.44h-3.26l-.83 2.44h-1.06l3.05-8.65zm-.84 5.26h2.6l-.61-1.81c-.32-.95-.66-2.42-.66-2.42h-.04s-.36 1.48-.68 2.42l-.61 1.81zm7.09 3.39h1.08l2.33-6.4h-1.05l-1.02 2.89c-.35 1-.73 2.67-.73 2.67H332s-.38-1.68-.72-2.67l-.98-2.89h-1.18l2.32 6.4zm3.76-2.94v-.54c0-2.11 1.32-3.05 2.77-3.05 1.74 0 2.57 1.01 2.57 2.9v.74h-4.22c.02 1.52.77 2.05 2.06 2.05a3.9 3.9 0 0 0 1.97-.48v.8c-.37.29-1.09.62-2.13.62-2 .02-3.02-1.18-3.02-3.04m1.11-.82h3.07c0-1.34-.5-1.87-1.46-1.87-.72-.01-1.57.37-1.61 1.87m5.33 3.76h1.08v-4.95c.44-.3 1.13-.54 1.72-.54.11 0 .32.01.48.05v-.98a1.54 1.54 0 0 0-.39-.05c-.67 0-1.43.39-1.79.83h-.06v-.76h-1.03v6.4zm3.59-1.69c0-1.12.68-1.72 1.91-1.86l1.67-.19v-.62c0-.97-.42-1.21-1.55-1.21-.61 0-1.11.1-1.5.19v-.79a4.9 4.9 0 0 1 1.93-.35c1.4 0 2.2.6 2.2 1.88v4.64h-.86l-.12-.54h-.07c-.3.36-.82.66-1.64.66-1.16 0-1.97-.58-1.97-1.81m3.57.53v-1.76l-1.39.15c-.7.07-1.07.36-1.07 1.05 0 .68.44 1.01 1.11 1.01.55-.01 1.09-.2 1.35-.45m2.55 3.22v-.82a6.1 6.1 0 0 0 2.03.38c1.27 0 2.03-.42 2.03-1.67v-.73h-.06c-.37.36-.91.6-1.75.6-1.21 0-2.6-.64-2.6-2.79v-.53c0-2.16 1.17-3.03 2.81-3.03.76 0 1.27.26 1.61.49h.06l.11-.37h.91v6.49c0 1.8-1.05 2.47-2.9 2.47-.9.01-1.83-.2-2.25-.49m4.05-3.64v-3.54a2.47 2.47 0 0 0-1.48-.46c-1.14 0-1.82.43-1.82 1.93v.64c0 1.56.74 1.94 1.84 1.94.69 0 1.19-.28 1.46-.51m2.19-1.36v-.54c0-2.11 1.32-3.05 2.77-3.05 1.74 0 2.57 1.01 2.57 2.9v.74h-4.22c.02 1.52.77 2.05 2.06 2.05a3.9 3.9 0 0 0 1.97-.48v.8c-.37.29-1.09.62-2.13.62-2 .02-3.02-1.18-3.02-3.04m1.11-.82h3.07c0-1.34-.5-1.87-1.46-1.87-.72-.01-1.57.37-1.61 1.87m8.56 2.26c0 1.14.77 1.57 1.77 1.57.56 0 .93-.16 1.2-.3v-.73c-.25.07-.66.13-.92.13-.71 0-.96-.22-.96-.83v-3.84h1.76v-.91h-1.76v-1.51h-1.09v1.51h-1.08v.91h1.08v4m3.56-1.44v-.54c0-2.11 1.32-3.05 2.77-3.05 1.74 0 2.57 1.01 2.57 2.9v.74h-4.22c.02 1.52.77 2.05 2.06 2.05a3.9 3.9 0 0 0 1.97-.48v.8c-.37.29-1.09.62-2.13.62-2 .02-3.02-1.18-3.02-3.04m1.12-.82h3.07c0-1.34-.5-1.87-1.46-1.87-.72-.01-1.57.37-1.61 1.87m5.33 3.76h1.08v-5.16c.46-.22 1-.42 1.5-.42.84 0 1.09.31 1.09 1.04v4.53h1.08v-4.76l-.02-.37a3.7 3.7 0 0 1 1.52-.44c.84 0 1.1.31 1.1 1.04v4.53h1.08v-4.76c0-1.24-.65-1.76-1.75-1.76-.71 0-1.44.26-2.1.71h-.06c-.3-.48-.8-.71-1.51-.71s-1.39.31-1.92.67h-.06v-.55h-1.03v6.41zm9.88-6.4h1.03v.52h.06a2.7 2.7 0 0 1 1.82-.64c1.36 0 2.58.73 2.58 2.96v.54c0 2.22-1.1 3.14-2.84 3.14-.71 0-1.23-.2-1.57-.41v2.72h-1.08v-8.83zm4.38 3.52v-.64c0-1.61-.64-2.08-1.76-2.08-.69 0-1.27.24-1.53.43v3.95c.26.23.84.44 1.48.44 1.13.01 1.81-.54 1.81-2.1zm4.99-4.79h1.15v-1.13h-1.15v1.13zm.03 7.67h1.08v-6.4h-1.08v6.4zm2.62 0h1.08v-5.16c.46-.2 1.1-.42 1.65-.42 1 0 1.24.31 1.24 1.04v4.53h1.08v-4.76c0-1.24-.59-1.76-1.83-1.76-.77 0-1.6.3-2.12.67h-.06v-.55h-1.03v6.41zm11.62-8.65h1.09l3 8.65h-1.16l-.83-2.44h-3.26l-.83 2.44h-1.06l3.05-8.65zm-.84 5.26h2.6l-.61-1.81c-.32-.95-.66-2.42-.66-2.42h-.04s-.36 1.48-.68 2.42l-.61 1.81zm5.79 1.63c0 1.24.68 1.88 1.92 1.88.78 0 1.42-.3 1.94-.67h.07l.11.55h.92v-6.4h-1.09v5.12c-.44.24-.98.46-1.63.46-.91 0-1.16-.33-1.16-1.1v-4.47h-1.08v4.63m6.45 3.82v-.82a6.1 6.1 0 0 0 2.03.38c1.27 0 2.03-.42 2.03-1.67v-.73h-.06c-.37.36-.91.6-1.75.6-1.21 0-2.6-.64-2.6-2.79v-.53c0-2.16 1.18-3.03 2.81-3.03.76 0 1.27.26 1.61.49h.06l.11-.37h.91v6.49c0 1.8-1.05 2.47-2.9 2.47a4.5 4.5 0 0 1-2.25-.49m4.06-3.64v-3.54a2.5 2.5 0 0 0-1.48-.46c-1.14 0-1.82.43-1.82 1.93v.64c0 1.56.74 1.94 1.83 1.94.7 0 1.19-.28 1.47-.51m2.54-.18c0 1.24.68 1.88 1.92 1.88.78 0 1.42-.3 1.94-.67h.07l.11.55h.92v-6.4h-1.09v5.12c-.44.24-.98.46-1.63.46-.91 0-1.16-.33-1.16-1.1v-4.47h-1.08v4.63m6.11 1.42c.53.3 1.22.44 2.04.44 1.38 0 2.27-.65 2.27-1.91 0-1.13-.5-1.56-1.74-1.88l-.6-.16c-.64-.17-.91-.39-.91-.91 0-.57.42-.85 1.23-.85.7 0 1.34.19 1.67.34v-.89a3.67 3.67 0 0 0-1.73-.37c-1.51 0-2.21.77-2.21 1.88 0 1.12.66 1.55 1.57 1.79l.6.16c.77.2 1.04.48 1.04 1.01 0 .55-.41.88-1.34.88-.9 0-1.36-.18-1.89-.4v.87m5.73-1.16c0 1.14.77 1.57 1.77 1.57.56 0 .93-.16 1.2-.3v-.73c-.25.07-.66.13-.92.13-.71 0-.96-.22-.96-.83v-3.84h1.76v-.91h-1.76v-1.51h-1.09v1.51h-1.08v.91h1.08v4"/>
  <path fill="#ED1C24" d="M349.76 464.37l-2.38 7.83h-4.71v-9.52a33.12 33.12 0 0 1 12.02-2.1c9.01 0 13.27 3.97 13.27 10.09 0 6.24-4.65 10.43-13.78 15.03l-4.99 2.55v.17h19.11l-.57 7.31h-25.74v-6.35l7.88-6.24c5.39-4.42 6.98-8.39 6.98-12.3 0-4.03-1.19-6.8-4.42-6.8-1.14-.01-1.93.16-2.67.33m52.73 16.28c0-11.96-5.16-20.07-16.1-20.07-10.21 0-14.97 6.12-14.97 13.95 0 7.26 3.63 13.04 11.34 13.04 3.06 0 6.8-1.42 8.68-3.29-.4 10.26-4.37 13.78-11 13.78-2.38 0-5.1-.57-6.92-1.14v3.52c2.04 1.42 5.39 2.44 10.04 2.44 11.33-.01 18.93-6.7 18.93-22.23m-20.24-6.81c0-6.86 1.3-9.58 4.14-9.58 3.57 0 5.1 4.65 5.1 13.89 0 1.19 0 2.55-.06 3.46a9.18 9.18 0 0 1-4.31 1.02c-3.4 0-4.87-2.55-4.87-8.79m32.72 10.78c0 6.89 3.58 11.64 10.75 11.64 4.11 0 6.64-1.61 8.09-3.42v-2.01a9.6 9.6 0 0 1-4.95 1.17c-4.27 0-6.48-2.5-6.48-8.13 0-5.76 1.77-8.46 4.87-8.46.77 0 1.37.08 1.85.28l1.29 4.99h3.26v-6.76c-1.33-.44-4.15-.76-7.01-.76-7.16-.02-11.67 4.41-11.67 11.46m2.7-12.54a4.93 4.93 0 0 0-9.84 0 4.93 4.93 0 0 0 9.84 0zm-2 0a2.92 2.92 0 1 1-5.85 0 2.92 2.92 0 0 1 5.85 0z"/>
  <path fill="#3FA9F5" d="M633.37 495.7a49.11 49.11 0 1 1 49.11-49.11h34.09c0-27.57-11.99-51.1-34.29-67.31a83.2 83.2 0 1 0 18.41 116.21l-27.59-20.04a49.06 49.06 0 0 1-39.73 20.25"/>
  <path fill="#ED1C24" d="M689.93 449a48.9 48.9 0 0 1-9.38 28.86l27.58 20.04c10.8-14.87 15.89-30.52 15.89-48.9h-34.09z"/>
  <polygon fill="#E0E9ED" points="645.16,446 645.16,441 610.16,441 610.16,460 641.16,460 641.16,462 660.16,462 660.16,446"/>
  <path fill="#B3B3B3" d="M613.16 447h11v8h-11v-8zm32 9h11v-8h-11v8zm-18 4h10v-13h-10v13zm20-21h-39v2h39v-2zm-8 5v2h23v-2h-23z"/>
  <path fill="#ED1C24" d="M731.65 475.43l4.23-1.28V457.3l-4.23.68v-2.52l8.72-4.23h3.33v22.92l4.1 1.28v2.18h-16.16v-2.18zm17.96-10.73c0 9.07 5.47 13.42 12.36 13.42 6.46 0 12.57-4.32 12.57-13.68 0-9.11-5.56-13.38-12.27-13.38-6.51 0-12.66 4.23-12.66 13.64m16.2.08c0 8.04-1.11 10.56-3.72 10.56-2.82 0-3.81-2.57-3.81-10.99 0-7.99 1.15-10.56 3.76-10.56 2.74 0 3.77 2.44 3.77 10.99m14.66 5.35c2.26 0 4.43-1.52 4.43-4.78 0-3.21-2.21-4.64-4.41-4.64-2.21 0-4.38 1.52-4.38 4.78 0 3.19 2.05 4.64 4.36 4.64zm-1.36 7.75h2.08l11.35-16.91h-2.1l-11.33 16.91zm1.38-8.95c-.97 0-1.27-1.04-1.27-3.58 0-2.49.3-3.44 1.27-3.44.92 0 1.27 1.02 1.27 3.55 0 2.57-.37 3.47-1.27 3.47zm10.73 8.95c2.28 0 4.43-1.52 4.43-4.78 0-3.18-2.19-4.64-4.41-4.64-2.19 0-4.38 1.52-4.38 4.78 0 3.17 2.08 4.64 4.36 4.64zm.02-1.22c-.95 0-1.25-1.02-1.25-3.55 0-2.49.3-3.44 1.25-3.44s1.29.99 1.29 3.55c.01 2.59-.36 3.44-1.29 3.44z"/>
  <path fill="#333" d="M731 498.56v-.8c0-2.79 1.74-4.19 4.11-4.19 2.64 0 4.08 1.43 4.08 4.1v.8c0 2.8-1.71 4.19-4.1 4.19-2.65 0-4.09-1.46-4.09-4.1m5.75.07v-.91c0-2.02-.69-2.37-1.65-2.37-1.06 0-1.65.61-1.65 2.29v.91c0 1.97.72 2.35 1.68 2.35 1.04 0 1.62-.58 1.62-2.27m4.51 3.87h2.4v-6.95h1.83v-1.82h-1.83v-.69c0-.88.42-1.2 1.25-1.2.4 0 .8.05 1.01.1v-1.6c-.3-.16-.93-.3-1.76-.3-1.7 0-2.9.86-2.9 2.75v.95h-1.23v1.82h1.23v6.94zm8.62-2.35c0-1.76 1.12-2.42 2.9-2.64l1.71-.24v-.53c0-.93-.45-1.2-1.76-1.2-.83 0-1.6.13-2.16.26v-1.73c.85-.34 1.86-.5 3.09-.5 2.1 0 3.22.78 3.22 2.77v6.16h-1.97l-.19-.85h-.1c-.37.58-1.09 1.01-2.13 1.01-1.55 0-2.61-.83-2.61-2.51m4.61.53v-2.06l-1.22.13c-.74.08-1.07.45-1.07 1.23 0 .82.46 1.12 1.09 1.12.48-.01.96-.18 1.2-.42m4.11-.26c0 1.62.79 2.21 2.23 2.21.75 0 1.3-.18 1.57-.34v-1.55c-.18.03-.4.08-.62.08-.58 0-.78-.21-.78-.78v-9.84h-2.39v10.22m4.89 0c0 1.62.79 2.21 2.23 2.21.75 0 1.3-.18 1.57-.34v-1.55c-.18.03-.4.08-.62.08-.58 0-.78-.21-.78-.78v-9.84h-2.39v10.22m8.47 2.08h2.38v-6.56a3.72 3.72 0 0 1 1.55-.37c.91 0 1.22.29 1.22 1.07v5.86h2.39v-6.53c0-1.7-.88-2.4-2.45-2.4-1.06 0-2 .43-2.71 1.18h-.08v-1.02h-2.3v8.77zm8.88-3.94v-.8c0-2.79 1.74-4.19 4.11-4.19 2.64 0 4.08 1.43 4.08 4.1v.8c0 2.8-1.71 4.19-4.1 4.19-2.65 0-4.09-1.46-4.09-4.1m5.74.07v-.91c0-2.02-.69-2.37-1.65-2.37-1.06 0-1.65.61-1.65 2.29v.91c0 1.97.72 2.35 1.68 2.35 1.05 0 1.62-.58 1.62-2.27m3.84 3.87h2.39v-6.56a3.72 3.72 0 0 1 1.55-.37c.91 0 1.22.29 1.22 1.07v5.86h2.39v-6.53c0-1.7-.88-2.4-2.45-2.4-1.06 0-2 .43-2.7 1.18h-.08v-1.02h-2.3v8.77zm9.23-3.84h4.5v-2h-4.5v2zm5.06 3.46c.58.3 1.23.51 2.38.51 2.34 0 3.46-1.41 3.46-3.35v-8.32h-2.59v7.99c0 1.09-.61 1.54-1.66 1.54-.62 0-1.17-.13-1.58-.27v1.9m7.09-1.97c0-1.76 1.12-2.42 2.9-2.64l1.71-.24v-.53c0-.93-.45-1.2-1.76-1.2-.83 0-1.6.13-2.16.26v-1.73c.85-.34 1.86-.5 3.09-.5 2.1 0 3.22.78 3.22 2.77v6.16h-1.97l-.19-.85h-.1c-.37.58-1.09 1.01-2.13 1.01-1.55 0-2.61-.83-2.61-2.51m4.61.53v-2.06l-1.22.13c-.74.08-1.07.45-1.07 1.23 0 .82.46 1.12 1.09 1.12.48-.01.96-.18 1.2-.42m4.11-6.95h2.32v.99h.08a2.96 2.96 0 0 1 2.46-1.15c1.7 0 3.14.93 3.14 3.95v.79c0 3.22-1.41 4.35-3.62 4.35-.98 0-1.63-.34-1.99-.64v3.73h-2.4v-12.02zm5.54 4.9v-.9c0-1.81-.56-2.21-1.68-2.21-.66 0-1.17.22-1.46.43v4.59c.27.21.8.4 1.38.4 1.15.01 1.76-.49 1.76-2.31zm3.42 1.52c0-1.76 1.12-2.42 2.9-2.64l1.71-.24v-.53c0-.93-.45-1.2-1.76-1.2-.83 0-1.6.13-2.16.26v-1.73c.85-.34 1.86-.5 3.09-.5 2.1 0 3.22.78 3.22 2.77v6.16h-1.97l-.19-.85h-.1c-.37.58-1.09 1.01-2.13 1.01-1.55 0-2.61-.83-2.61-2.51m4.61.53v-2.06l-1.22.13c-.74.08-1.07.45-1.07 1.23 0 .82.46 1.12 1.09 1.12.48-.01.96-.18 1.2-.42m4.13 1.82h2.39v-6.56a3.72 3.72 0 0 1 1.55-.37c.91 0 1.22.29 1.22 1.07v5.86h2.39v-6.53c0-1.7-.88-2.4-2.45-2.4-1.06 0-2 .43-2.71 1.18h-.08v-1.02h-2.31v8.77zm8.86-3.97v-.83c0-2.69 1.58-4.13 3.99-4.13 2.59 0 3.76 1.36 3.76 4.13v1.14h-5.31c.1 1.57.85 1.94 2.46 1.94a6.6 6.6 0 0 0 2.55-.5v1.65c-.62.34-1.6.74-3.12.74-2.92-.01-4.33-1.4-4.33-4.14m2.38-1.25h3.04c0-1.58-.54-2.02-1.46-2.02-.79.01-1.53.36-1.58 2.02m6.34 4.84c.69.37 1.67.54 2.88.54 2.31 0 3.49-.99 3.49-2.86 0-1.59-.66-2.34-2.42-2.67l-.77-.15c-.77-.14-.99-.34-.99-.78 0-.5.34-.78 1.38-.78.99 0 1.78.18 2.31.37V494a6.35 6.35 0 0 0-2.59-.42c-2.24 0-3.3 1.04-3.3 2.8 0 1.58.88 2.35 2.27 2.62l.78.14c.83.16 1.02.37 1.02.83 0 .51-.3.83-1.54.83a6.3 6.3 0 0 1-2.53-.51v1.83m7.31-3.59v-.83c0-2.69 1.58-4.13 3.99-4.13 2.59 0 3.76 1.36 3.76 4.13v1.14h-5.31c.1 1.57.85 1.94 2.46 1.94a6.6 6.6 0 0 0 2.55-.5v1.65c-.62.34-1.6.74-3.12.74-2.93-.01-4.33-1.4-4.33-4.14m2.38-1.25h3.04c0-1.58-.54-2.02-1.46-2.02-.8.01-1.53.36-1.58 2.02M731.37 520.5h2.4v-6.18a4.34 4.34 0 0 1 2.76-.39v-2.24a1.22 1.22 0 0 0-.51-.08c-.87 0-1.71.53-2.24 1.46h-.1v-1.35h-2.31v8.78zm5.92-3.97v-.83c0-2.69 1.58-4.13 3.99-4.13 2.59 0 3.76 1.36 3.76 4.13v1.14h-5.31c.1 1.57.85 1.94 2.46 1.94a6.6 6.6 0 0 0 2.55-.5v1.65c-.62.34-1.6.74-3.12.74-2.92-.01-4.33-1.4-4.33-4.14m2.38-1.25h3.04c0-1.58-.54-2.02-1.46-2.02-.79.01-1.53.36-1.58 2.02m6.34 4.84a6.2 6.2 0 0 0 2.88.54c2.3 0 3.49-.99 3.49-2.87 0-1.58-.66-2.34-2.42-2.67l-.77-.15c-.77-.14-.99-.34-.99-.78 0-.5.34-.78 1.38-.78.99 0 1.78.18 2.31.37v-1.79a6.35 6.35 0 0 0-2.59-.42c-2.24 0-3.3 1.04-3.3 2.8 0 1.58.88 2.35 2.27 2.62l.78.14c.83.16 1.02.37 1.02.83 0 .51-.3.83-1.54.83a6.3 6.3 0 0 1-2.53-.51v1.84m7.7-9.72h2.42v-2.11h-2.42v2.11zm.02 10.1h2.39v-8.77h-2.39v8.77zm3.81-3.86v-.8c0-3.14 1.51-4.27 3.66-4.27.98 0 1.59.35 1.92.67v-4.05h2.39v12.31h-2.06l-.18-.94h-.08a2.83 2.83 0 0 1-2.35 1.1c-1.74 0-3.3-1.02-3.3-4.02m5.58 1.67v-4.58a2.27 2.27 0 0 0-1.38-.38c-1.12 0-1.76.45-1.76 2.31v.9c0 1.84.62 2.26 1.73 2.26a2.29 2.29 0 0 0 1.41-.51m3.76-1.78v-.83c0-2.69 1.58-4.13 3.99-4.13 2.59 0 3.76 1.36 3.76 4.13v1.14h-5.31c.1 1.57.85 1.94 2.46 1.94a6.5 6.5 0 0 0 2.54-.5v1.65c-.62.34-1.6.74-3.12.74-2.91-.01-4.32-1.4-4.32-4.14m2.39-1.25h3.04c0-1.58-.54-2.02-1.46-2.02-.8.01-1.54.36-1.58 2.02m6.72 5.22h2.39v-6.56a3.72 3.72 0 0 1 1.55-.37c.91 0 1.22.29 1.22 1.07v5.86h2.39v-6.53c0-1.7-.88-2.4-2.45-2.4-1.06 0-2 .43-2.7 1.18h-.08v-1.02h-2.31v8.77zm9.93-2.24c0 1.83.94 2.37 2.54 2.37.85 0 1.52-.21 1.87-.4v-1.62c-.27.08-.69.14-.99.14-.75 0-1.04-.18-1.04-.86v-4.34h1.95v-1.82h-1.95v-2.08h-2.38v2.08h-1.25v1.82h1.25v4.71m5.39 1.86c.69.37 1.67.54 2.88.54 2.3 0 3.49-.99 3.49-2.87 0-1.58-.66-2.34-2.42-2.67l-.77-.15c-.77-.14-.99-.34-.99-.78 0-.5.34-.78 1.38-.78.99 0 1.78.18 2.3.37v-1.79a6.35 6.35 0 0 0-2.59-.42c-2.24 0-3.3 1.04-3.3 2.8 0 1.58.88 2.35 2.27 2.62l.78.14c.83.16 1.02.37 1.02.83 0 .51-.3.83-1.54.83a6.3 6.3 0 0 1-2.53-.51v1.84m11.29-1.7c0 1.62.79 2.21 2.23 2.21.75 0 1.3-.18 1.57-.34v-1.55c-.18.03-.4.08-.62.08-.58 0-.78-.21-.78-.78v-9.84h-2.39v10.22m4.88-8.02h2.42v-2.11h-2.42v2.11zm.02 10.1h2.39v-8.77h-2.39v8.77zm6.34 0h2.5l2.99-8.77H817l-.94 3.12c-.45 1.55-.86 4-.86 4h-.06s-.42-2.47-.88-4.03l-.93-3.09h-2.48l2.97 8.77zm5.75-3.97v-.83c0-2.69 1.58-4.13 3.99-4.13 2.59 0 3.76 1.36 3.76 4.13v1.14h-5.31c.1 1.57.85 1.94 2.46 1.94a6.5 6.5 0 0 0 2.54-.5v1.65c-.62.34-1.6.74-3.12.74-2.91-.01-4.32-1.4-4.32-4.14m2.39-1.25H825c0-1.58-.54-2.02-1.46-2.02-.8.01-1.53.36-1.58 2.02m10.27-4.88h2.42v-2.11h-2.42v2.11zm.02 10.1h2.39v-8.77h-2.39v8.77zm4.17 0h2.39v-6.56a3.72 3.72 0 0 1 1.55-.37c.91 0 1.22.29 1.22 1.07v5.86h2.39v-6.53c0-1.7-.88-2.4-2.45-2.4-1.06 0-2 .43-2.7 1.18h-.08v-1.02h-2.3v8.77zm-105.29 12.82v-1.14c0-3.79 2.26-5.41 5.14-5.41 2.95 0 5.04 1.57 5.04 5.38v1.14c0 3.78-2.23 5.41-5.11 5.41-2.94-.01-5.07-1.61-5.07-5.38m7.46.16v-1.33c0-2.39-.64-3.39-2.39-3.39-1.6 0-2.34 1.06-2.34 3.19v1.35c0 2.43.67 3.44 2.37 3.44 1.6-.01 2.36-1.1 2.36-3.26m3.91 4.64a6.2 6.2 0 0 0 2.88.54c2.3 0 3.49-.99 3.49-2.87 0-1.58-.66-2.34-2.42-2.67l-.77-.15c-.77-.14-.99-.34-.99-.78 0-.5.34-.78 1.38-.78.99 0 1.78.18 2.31.37v-1.79a6.35 6.35 0 0 0-2.59-.42c-2.24 0-3.3 1.04-3.3 2.8 0 1.58.88 2.35 2.27 2.62l.78.14c.83.16 1.02.37 1.02.83 0 .51-.3.83-1.54.83a6.3 6.3 0 0 1-2.53-.51v1.84m7.26-1.97c0-1.76 1.12-2.42 2.9-2.64l1.71-.24v-.53c0-.93-.45-1.2-1.76-1.2-.83 0-1.6.13-2.16.26v-1.73c.85-.34 1.86-.5 3.09-.5 2.1 0 3.22.78 3.22 2.77v6.16h-1.97l-.19-.85h-.1c-.37.58-1.09 1.01-2.13 1.01-1.55 0-2.61-.83-2.61-2.51m4.61.53v-2.06l-1.22.13c-.74.08-1.07.45-1.07 1.23 0 .82.46 1.12 1.09 1.12.48-.01.96-.18 1.2-.42m4.11 1.82h2.39v-12.31h-2.39v12.31zm2.58-4.58l2.4-4.19h2.51l-2.56 4.05 2.74 4.72h-2.59l-2.5-4.58zm5.45 2.23c0-1.76 1.12-2.42 2.9-2.64l1.71-.24v-.53c0-.93-.45-1.2-1.76-1.2-.83 0-1.6.13-2.16.26v-1.73c.85-.34 1.86-.5 3.09-.5 2.1 0 3.22.78 3.22 2.77v6.16h-1.97l-.19-.85h-.1c-.37.58-1.09 1.01-2.13 1.01-1.55 0-2.61-.83-2.61-2.51m4.61.53v-2.06l-1.22.13c-.74.08-1.07.45-1.07 1.23 0 .82.46 1.12 1.09 1.12.48-.01.96-.18 1.2-.42"/>
</svg>
